<svg width="1600" height="960" viewBox="0 0 1600 960" fill="none" xmlns="http://www.w3.org/2000/svg">
<rect width="1600" height="960" fill="#0A0B16"/>
<ellipse cx="28.4248" cy="1.56017" rx="0.498677" ry="0.560165" fill="white"/>
<ellipse cx="103.227" cy="1.56017" rx="0.498679" ry="0.560165" fill="white"/>
<ellipse cx="178.029" cy="1.56017" rx="0.498679" ry="0.560165" fill="white"/>
<ellipse cx="252.831" cy="1.56017" rx="0.498673" ry="0.560165" fill="white"/>
<ellipse cx="327.633" cy="1.56017" rx="0.498679" ry="0.560165" fill="white"/>
<ellipse cx="402.435" cy="1.56017" rx="0.498679" ry="0.560165" fill="white"/>
<ellipse cx="477.237" cy="1.56017" rx="0.498625" ry="0.560165" fill="white"/>
<ellipse cx="552.039" cy="1.56017" rx="0.498666" ry="0.560165" fill="white"/>
<ellipse cx="626.841" cy="1.56017" rx="0.498693" ry="0.560165" fill="white"/>
<ellipse cx="701.643" cy="1.56017" rx="0.498693" ry="0.560165" fill="white"/>
<ellipse cx="63.3323" cy="57.5764" rx="0.498679" ry="0.560165" fill="white"/>
<ellipse cx="138.134" cy="57.5764" rx="0.49869" ry="0.560165" fill="white"/>
<ellipse cx="212.936" cy="57.5764" rx="0.498679" ry="0.560165" fill="white"/>
<ellipse cx="287.738" cy="57.5764" rx="0.498666" ry="0.560165" fill="white"/>
<ellipse cx="362.54" cy="57.5764" rx="0.498693" ry="0.560165" fill="white"/>
<ellipse cx="437.342" cy="57.5764" rx="0.498679" ry="0.560165" fill="white"/>
<ellipse cx="512.144" cy="57.5764" rx="0.498693" ry="0.560165" fill="white"/>
<ellipse cx="586.946" cy="57.5764" rx="0.498666" ry="0.560165" fill="white"/>
<ellipse cx="661.748" cy="57.5764" rx="0.498693" ry="0.560165" fill="white"/>
<ellipse cx="736.55" cy="57.5764" rx="0.498693" ry="0.560165" fill="white"/>
<ellipse cx="48.3719" cy="113.593" rx="0.49868" ry="0.560165" fill="white"/>
<ellipse cx="123.174" cy="113.593" rx="0.498679" ry="0.560165" fill="white"/>
<ellipse cx="197.976" cy="113.593" rx="0.498679" ry="0.560165" fill="white"/>
<ellipse cx="272.778" cy="113.593" rx="0.498693" ry="0.560165" fill="white"/>
<ellipse cx="347.58" cy="113.593" rx="0.498679" ry="0.560165" fill="white"/>
<ellipse cx="422.382" cy="113.593" rx="0.498679" ry="0.560165" fill="white"/>
<ellipse cx="497.184" cy="113.593" rx="0.498666" ry="0.560165" fill="white"/>
<ellipse cx="571.986" cy="113.593" rx="0.498693" ry="0.560165" fill="white"/>
<ellipse cx="646.788" cy="113.593" rx="0.498693" ry="0.560165" fill="white"/>
<ellipse cx="721.59" cy="113.593" rx="0.498666" ry="0.560165" fill="white"/>
<ellipse cx="63.3323" cy="169.609" rx="0.498679" ry="0.560165" fill="white"/>
<ellipse cx="138.134" cy="169.609" rx="0.49869" ry="0.560165" fill="white"/>
<ellipse cx="212.936" cy="169.609" rx="0.498679" ry="0.560165" fill="white"/>
<ellipse cx="287.738" cy="169.609" rx="0.498666" ry="0.560165" fill="white"/>
<ellipse cx="362.54" cy="169.609" rx="0.498693" ry="0.560165" fill="white"/>
<ellipse cx="437.342" cy="169.609" rx="0.498679" ry="0.560165" fill="white"/>
<ellipse cx="512.144" cy="169.609" rx="0.498693" ry="0.560165" fill="white"/>
<ellipse cx="586.946" cy="169.609" rx="0.498666" ry="0.560165" fill="white"/>
<ellipse cx="661.748" cy="169.609" rx="0.498693" ry="0.560165" fill="white"/>
<ellipse cx="736.55" cy="169.609" rx="0.498693" ry="0.560165" fill="white"/>
<ellipse cx="38.3983" cy="226.746" rx="0.498678" ry="0.560165" fill="white"/>
<ellipse cx="113.2" cy="226.746" rx="0.498679" ry="0.560165" fill="white"/>
<ellipse cx="188.002" cy="226.746" rx="0.498673" ry="0.560165" fill="white"/>
<ellipse cx="262.804" cy="226.746" rx="0.4987" ry="0.560165" fill="white"/>
<ellipse cx="337.606" cy="226.746" rx="0.498679" ry="0.560165" fill="white"/>
<ellipse cx="412.408" cy="226.746" rx="0.498679" ry="0.560165" fill="white"/>
<ellipse cx="487.21" cy="226.746" rx="0.49872" ry="0.560165" fill="white"/>
<ellipse cx="562.013" cy="226.746" rx="0.498666" ry="0.560165" fill="white"/>
<ellipse cx="636.815" cy="226.746" rx="0.498693" ry="0.560165" fill="white"/>
<ellipse cx="711.616" cy="226.746" rx="0.498666" ry="0.560165" fill="white"/>
<ellipse cx="68.3191" cy="282.762" rx="0.498678" ry="0.560165" fill="white"/>
<ellipse cx="143.121" cy="282.762" rx="0.498679" ry="0.560165" fill="white"/>
<ellipse cx="217.923" cy="282.762" rx="0.4987" ry="0.560165" fill="white"/>
<ellipse cx="292.725" cy="282.762" rx="0.498679" ry="0.560165" fill="white"/>
<ellipse cx="367.527" cy="282.762" rx="0.498679" ry="0.560165" fill="white"/>
<ellipse cx="442.329" cy="282.762" rx="0.49872" ry="0.560165" fill="white"/>
<ellipse cx="517.131" cy="282.762" rx="0.498611" ry="0.560165" fill="white"/>
<ellipse cx="591.933" cy="282.762" rx="0.498693" ry="0.560165" fill="white"/>
<ellipse cx="666.735" cy="282.762" rx="0.498666" ry="0.560165" fill="white"/>
<ellipse cx="58.3455" cy="338.778" rx="0.498678" ry="0.560165" fill="white"/>
<ellipse cx="133.148" cy="338.778" rx="0.498666" ry="0.560165" fill="white"/>
<ellipse cx="207.95" cy="338.778" rx="0.498679" ry="0.560165" fill="white"/>
<ellipse cx="282.752" cy="338.778" rx="0.498707" ry="0.560165" fill="white"/>
<ellipse cx="357.554" cy="338.778" rx="0.498679" ry="0.560165" fill="white"/>
<ellipse cx="432.356" cy="338.778" rx="0.498625" ry="0.560165" fill="white"/>
<ellipse cx="507.158" cy="338.778" rx="0.49872" ry="0.560165" fill="white"/>
<ellipse cx="581.96" cy="338.778" rx="0.498693" ry="0.560165" fill="white"/>
<ellipse cx="656.762" cy="338.778" rx="0.498693" ry="0.560165" fill="white"/>
<ellipse cx="731.564" cy="338.778" rx="0.498666" ry="0.560165" fill="white"/>
<ellipse cx="88.2663" cy="394.795" rx="0.498683" ry="0.56015" fill="white"/>
<ellipse cx="163.068" cy="394.795" rx="0.498679" ry="0.56015" fill="white"/>
<ellipse cx="237.87" cy="394.795" rx="0.4987" ry="0.56015" fill="white"/>
<ellipse cx="312.673" cy="394.795" rx="0.498679" ry="0.56015" fill="white"/>
<ellipse cx="387.474" cy="394.795" rx="0.498666" ry="0.56015" fill="white"/>
<ellipse cx="462.276" cy="394.795" rx="0.49872" ry="0.56015" fill="white"/>
<ellipse cx="537.079" cy="394.795" rx="0.498693" ry="0.56015" fill="white"/>
<ellipse cx="611.88" cy="394.795" rx="0.498693" ry="0.56015" fill="white"/>
<ellipse cx="686.683" cy="394.795" rx="0.498666" ry="0.56015" fill="white"/>
<ellipse cx="761.484" cy="394.795" rx="0.498857" ry="0.56015" fill="white"/>
<ellipse cx="48.3719" cy="450.811" rx="0.49868" ry="0.56015" fill="white"/>
<ellipse cx="123.174" cy="450.811" rx="0.498679" ry="0.56015" fill="white"/>
<ellipse cx="197.976" cy="450.811" rx="0.498679" ry="0.56015" fill="white"/>
<ellipse cx="272.778" cy="450.811" rx="0.498693" ry="0.56015" fill="white"/>
<ellipse cx="347.58" cy="450.811" rx="0.498679" ry="0.56015" fill="white"/>
<ellipse cx="422.382" cy="450.811" rx="0.498679" ry="0.56015" fill="white"/>
<ellipse cx="497.184" cy="450.811" rx="0.498666" ry="0.56015" fill="white"/>
<ellipse cx="571.986" cy="450.811" rx="0.498693" ry="0.56015" fill="white"/>
<ellipse cx="646.788" cy="450.811" rx="0.498693" ry="0.56015" fill="white"/>
<ellipse cx="721.59" cy="450.811" rx="0.498666" ry="0.56015" fill="white"/>
<ellipse cx="63.3323" cy="506.827" rx="0.498679" ry="0.56015" fill="white"/>
<ellipse cx="138.134" cy="506.827" rx="0.49869" ry="0.56015" fill="white"/>
<ellipse cx="212.936" cy="506.827" rx="0.498679" ry="0.56015" fill="white"/>
<ellipse cx="287.738" cy="506.827" rx="0.498666" ry="0.56015" fill="white"/>
<ellipse cx="362.54" cy="506.827" rx="0.498693" ry="0.56015" fill="white"/>
<ellipse cx="437.342" cy="506.827" rx="0.498679" ry="0.56015" fill="white"/>
<ellipse cx="512.144" cy="506.827" rx="0.498693" ry="0.56015" fill="white"/>
<ellipse cx="586.946" cy="506.827" rx="0.498666" ry="0.56015" fill="white"/>
<ellipse cx="661.748" cy="506.827" rx="0.498693" ry="0.56015" fill="white"/>
<ellipse cx="736.55" cy="506.827" rx="0.498693" ry="0.56015" fill="white"/>
<ellipse cx="98.24" cy="568.445" rx="0.498676" ry="0.56015" fill="white"/>
<ellipse cx="173.042" cy="568.445" rx="0.498679" ry="0.56015" fill="white"/>
<ellipse cx="247.844" cy="568.445" rx="0.498673" ry="0.56015" fill="white"/>
<ellipse cx="322.646" cy="568.445" rx="0.498679" ry="0.56015" fill="white"/>
<ellipse cx="397.448" cy="568.445" rx="0.49872" ry="0.56015" fill="white"/>
<ellipse cx="472.25" cy="568.445" rx="0.498625" ry="0.56015" fill="white"/>
<ellipse cx="547.052" cy="568.445" rx="0.498693" ry="0.56015" fill="white"/>
<ellipse cx="621.854" cy="568.445" rx="0.498666" ry="0.56015" fill="white"/>
<ellipse cx="696.656" cy="568.445" rx="0.498666" ry="0.56015" fill="white"/>
<ellipse cx="771.458" cy="568.445" rx="0.498693" ry="0.56015" fill="white"/>
<ellipse cx="68.3191" cy="630.063" rx="0.498678" ry="0.560181" fill="white"/>
<ellipse cx="143.121" cy="630.063" rx="0.498679" ry="0.560181" fill="white"/>
<ellipse cx="217.923" cy="630.063" rx="0.4987" ry="0.560181" fill="white"/>
<ellipse cx="292.725" cy="630.063" rx="0.498679" ry="0.560181" fill="white"/>
<ellipse cx="367.527" cy="630.063" rx="0.498679" ry="0.560181" fill="white"/>
<ellipse cx="442.329" cy="630.063" rx="0.49872" ry="0.560181" fill="white"/>
<ellipse cx="517.131" cy="630.063" rx="0.498611" ry="0.560181" fill="white"/>
<ellipse cx="591.933" cy="630.063" rx="0.498693" ry="0.560181" fill="white"/>
<ellipse cx="666.735" cy="630.063" rx="0.498666" ry="0.560181" fill="white"/>
<ellipse cx="741.537" cy="630.063" rx="0.498666" ry="0.560181" fill="white"/>
<ellipse cx="108.214" cy="690.561" rx="0.498676" ry="0.560181" fill="white"/>
<ellipse cx="183.016" cy="690.561" rx="0.498673" ry="0.560181" fill="white"/>
<ellipse cx="257.818" cy="690.561" rx="0.4987" ry="0.560181" fill="white"/>
<ellipse cx="332.62" cy="690.561" rx="0.498666" ry="0.560181" fill="white"/>
<ellipse cx="407.422" cy="690.561" rx="0.498666" ry="0.560181" fill="white"/>
<ellipse cx="482.224" cy="690.561" rx="0.498679" ry="0.560181" fill="white"/>
<ellipse cx="557.026" cy="690.561" rx="0.498693" ry="0.560181" fill="white"/>
<ellipse cx="631.828" cy="690.561" rx="0.498666" ry="0.560181" fill="white"/>
<ellipse cx="706.63" cy="690.561" rx="0.498693" ry="0.560181" fill="white"/>
<ellipse cx="78.2927" cy="752.179" rx="0.498678" ry="0.560181" fill="white"/>
<ellipse cx="153.095" cy="752.179" rx="0.498679" ry="0.560181" fill="white"/>
<ellipse cx="227.897" cy="752.179" rx="0.498686" ry="0.560181" fill="white"/>
<ellipse cx="302.699" cy="752.179" rx="0.498679" ry="0.560181" fill="white"/>
<ellipse cx="377.501" cy="752.179" rx="0.498666" ry="0.560181" fill="white"/>
<ellipse cx="452.303" cy="752.179" rx="0.498666" ry="0.560181" fill="white"/>
<ellipse cx="527.105" cy="752.179" rx="0.498693" ry="0.560181" fill="white"/>
<ellipse cx="601.907" cy="752.179" rx="0.498693" ry="0.560181" fill="white"/>
<ellipse cx="676.709" cy="752.179" rx="0.498666" ry="0.560181" fill="white"/>
<ellipse cx="751.511" cy="752.179" rx="0.498693" ry="0.560181" fill="white"/>
<ellipse cx="48.3719" cy="813.797" rx="0.49868" ry="0.56015" fill="white"/>
<ellipse cx="123.174" cy="813.797" rx="0.498679" ry="0.56015" fill="white"/>
<ellipse cx="197.976" cy="813.797" rx="0.498679" ry="0.56015" fill="white"/>
<ellipse cx="272.778" cy="813.797" rx="0.498693" ry="0.56015" fill="white"/>
<ellipse cx="347.58" cy="813.797" rx="0.498679" ry="0.56015" fill="white"/>
<ellipse cx="422.382" cy="813.797" rx="0.498679" ry="0.56015" fill="white"/>
<ellipse cx="497.184" cy="813.797" rx="0.498666" ry="0.56015" fill="white"/>
<ellipse cx="571.986" cy="813.797" rx="0.498693" ry="0.56015" fill="white"/>
<ellipse cx="646.788" cy="813.797" rx="0.498693" ry="0.56015" fill="white"/>
<ellipse cx="721.59" cy="813.797" rx="0.498666" ry="0.56015" fill="white"/>
<ellipse cx="78.2927" cy="875.415" rx="0.498678" ry="0.56015" fill="white"/>
<ellipse cx="153.095" cy="875.415" rx="0.498679" ry="0.56015" fill="white"/>
<ellipse cx="227.897" cy="875.415" rx="0.498686" ry="0.56015" fill="white"/>
<ellipse cx="302.699" cy="875.415" rx="0.498679" ry="0.56015" fill="white"/>
<ellipse cx="377.501" cy="875.415" rx="0.498666" ry="0.56015" fill="white"/>
<ellipse cx="452.303" cy="875.415" rx="0.498666" ry="0.56015" fill="white"/>
<ellipse cx="527.105" cy="875.415" rx="0.498693" ry="0.56015" fill="white"/>
<ellipse cx="601.907" cy="875.415" rx="0.498693" ry="0.56015" fill="white"/>
<ellipse cx="676.709" cy="875.415" rx="0.498666" ry="0.56015" fill="white"/>
<ellipse cx="58.3455" cy="931.431" rx="0.498678" ry="0.56015" fill="white"/>
<ellipse cx="133.148" cy="931.431" rx="0.498666" ry="0.56015" fill="white"/>
<ellipse cx="207.95" cy="931.431" rx="0.498679" ry="0.56015" fill="white"/>
<ellipse cx="282.752" cy="931.431" rx="0.498707" ry="0.56015" fill="white"/>
<ellipse cx="357.554" cy="931.431" rx="0.498679" ry="0.56015" fill="white"/>
<ellipse cx="432.356" cy="931.431" rx="0.498625" ry="0.56015" fill="white"/>
<ellipse cx="507.158" cy="931.431" rx="0.49872" ry="0.56015" fill="white"/>
<ellipse cx="581.96" cy="931.431" rx="0.498693" ry="0.56015" fill="white"/>
<ellipse cx="656.762" cy="931.431" rx="0.498693" ry="0.56015" fill="white"/>
<ellipse cx="656.762" cy="931.431" rx="0.498693" ry="0.56015" fill="white"/>
<ellipse cx="751.511" cy="875.415" rx="0.498693" ry="0.56015" fill="white"/>
<ellipse cx="53.3588" cy="7.16173" rx="0.498679" ry="0.560165" fill="white"/>
<ellipse cx="128.161" cy="7.16173" rx="0.498679" ry="0.560165" fill="white"/>
<ellipse cx="202.963" cy="7.16173" rx="0.498673" ry="0.560165" fill="white"/>
<ellipse cx="277.765" cy="7.16173" rx="0.498652" ry="0.560165" fill="white"/>
<ellipse cx="352.567" cy="7.16173" rx="0.498679" ry="0.560165" fill="white"/>
<ellipse cx="427.369" cy="7.16173" rx="0.498625" ry="0.560165" fill="white"/>
<ellipse cx="502.171" cy="7.16173" rx="0.498693" ry="0.560165" fill="white"/>
<ellipse cx="576.973" cy="7.16173" rx="0.498666" ry="0.560165" fill="white"/>
<ellipse cx="651.775" cy="7.16173" rx="0.498666" ry="0.560165" fill="white"/>
<ellipse cx="726.577" cy="7.16173" rx="0.498693" ry="0.560165" fill="white"/>
<ellipse cx="88.2663" cy="63.1781" rx="0.498683" ry="0.560165" fill="white"/>
<ellipse cx="163.068" cy="63.1781" rx="0.498679" ry="0.560165" fill="white"/>
<ellipse cx="237.87" cy="63.1781" rx="0.4987" ry="0.560165" fill="white"/>
<ellipse cx="312.673" cy="63.1781" rx="0.498679" ry="0.560165" fill="white"/>
<ellipse cx="387.474" cy="63.1781" rx="0.498666" ry="0.560165" fill="white"/>
<ellipse cx="462.276" cy="63.1781" rx="0.49872" ry="0.560165" fill="white"/>
<ellipse cx="537.079" cy="63.1781" rx="0.498693" ry="0.560165" fill="white"/>
<ellipse cx="611.88" cy="63.1781" rx="0.498693" ry="0.560165" fill="white"/>
<ellipse cx="686.683" cy="63.1781" rx="0.498666" ry="0.560165" fill="white"/>
<ellipse cx="761.484" cy="63.1781" rx="0.498857" ry="0.560165" fill="white"/>
<ellipse cx="73.3059" cy="119.194" rx="0.498679" ry="0.560165" fill="white"/>
<ellipse cx="148.108" cy="119.194" rx="0.498679" ry="0.560165" fill="white"/>
<ellipse cx="222.91" cy="119.194" rx="0.498659" ry="0.560165" fill="white"/>
<ellipse cx="297.712" cy="119.194" rx="0.498666" ry="0.560165" fill="white"/>
<ellipse cx="372.514" cy="119.194" rx="0.498679" ry="0.560165" fill="white"/>
<ellipse cx="447.316" cy="119.194" rx="0.498679" ry="0.560165" fill="white"/>
<ellipse cx="522.118" cy="119.194" rx="0.498638" ry="0.560165" fill="white"/>
<ellipse cx="596.92" cy="119.194" rx="0.498666" ry="0.560165" fill="white"/>
<ellipse cx="671.722" cy="119.194" rx="0.498693" ry="0.560165" fill="white"/>
<ellipse cx="746.524" cy="119.194" rx="0.498693" ry="0.560165" fill="white"/>
<ellipse cx="88.2663" cy="175.211" rx="0.498683" ry="0.560165" fill="white"/>
<ellipse cx="163.068" cy="175.211" rx="0.498679" ry="0.560165" fill="white"/>
<ellipse cx="237.87" cy="175.211" rx="0.4987" ry="0.560165" fill="white"/>
<ellipse cx="312.673" cy="175.211" rx="0.498679" ry="0.560165" fill="white"/>
<ellipse cx="387.474" cy="175.211" rx="0.498666" ry="0.560165" fill="white"/>
<ellipse cx="462.276" cy="175.211" rx="0.49872" ry="0.560165" fill="white"/>
<ellipse cx="537.079" cy="175.211" rx="0.498693" ry="0.560165" fill="white"/>
<ellipse cx="611.88" cy="175.211" rx="0.498693" ry="0.560165" fill="white"/>
<ellipse cx="686.683" cy="175.211" rx="0.498666" ry="0.560165" fill="white"/>
<ellipse cx="761.484" cy="175.211" rx="0.498857" ry="0.560165" fill="white"/>
<ellipse cx="63.3323" cy="232.347" rx="0.498679" ry="0.560165" fill="white"/>
<ellipse cx="138.134" cy="232.347" rx="0.49869" ry="0.560165" fill="white"/>
<ellipse cx="212.936" cy="232.347" rx="0.498679" ry="0.560165" fill="white"/>
<ellipse cx="287.738" cy="232.347" rx="0.498666" ry="0.560165" fill="white"/>
<ellipse cx="362.54" cy="232.347" rx="0.498693" ry="0.560165" fill="white"/>
<ellipse cx="437.342" cy="232.347" rx="0.498679" ry="0.560165" fill="white"/>
<ellipse cx="512.144" cy="232.347" rx="0.498693" ry="0.560165" fill="white"/>
<ellipse cx="586.946" cy="232.347" rx="0.498666" ry="0.560165" fill="white"/>
<ellipse cx="661.748" cy="232.347" rx="0.498693" ry="0.560165" fill="white"/>
<ellipse cx="736.55" cy="232.347" rx="0.498693" ry="0.560165" fill="white"/>
<ellipse cx="93.2532" cy="288.364" rx="0.498679" ry="0.560165" fill="white"/>
<ellipse cx="168.055" cy="288.364" rx="0.498679" ry="0.560165" fill="white"/>
<ellipse cx="242.857" cy="288.364" rx="0.498673" ry="0.560165" fill="white"/>
<ellipse cx="317.659" cy="288.364" rx="0.498693" ry="0.560165" fill="white"/>
<ellipse cx="392.461" cy="288.364" rx="0.498679" ry="0.560165" fill="white"/>
<ellipse cx="467.263" cy="288.364" rx="0.498679" ry="0.560165" fill="white"/>
<ellipse cx="542.065" cy="288.364" rx="0.498666" ry="0.560165" fill="white"/>
<ellipse cx="616.867" cy="288.364" rx="0.498693" ry="0.560165" fill="white"/>
<ellipse cx="691.669" cy="288.364" rx="0.498693" ry="0.560165" fill="white"/>
<ellipse cx="83.2796" cy="344.38" rx="0.498673" ry="0.560165" fill="white"/>
<ellipse cx="158.082" cy="344.38" rx="0.498686" ry="0.560165" fill="white"/>
<ellipse cx="232.884" cy="344.38" rx="0.498652" ry="0.560165" fill="white"/>
<ellipse cx="307.686" cy="344.38" rx="0.498679" ry="0.560165" fill="white"/>
<ellipse cx="382.488" cy="344.38" rx="0.498679" ry="0.560165" fill="white"/>
<ellipse cx="457.29" cy="344.38" rx="0.498679" ry="0.560165" fill="white"/>
<ellipse cx="532.092" cy="344.38" rx="0.49872" ry="0.560165" fill="white"/>
<ellipse cx="606.894" cy="344.38" rx="0.498666" ry="0.560165" fill="white"/>
<ellipse cx="681.695" cy="344.38" rx="0.498693" ry="0.560165" fill="white"/>
<ellipse cx="756.498" cy="344.38" rx="0.498583" ry="0.560165" fill="white"/>
<ellipse cx="113.2" cy="400.396" rx="0.498679" ry="0.56015" fill="white"/>
<ellipse cx="188.002" cy="400.396" rx="0.498673" ry="0.56015" fill="white"/>
<ellipse cx="262.804" cy="400.396" rx="0.4987" ry="0.56015" fill="white"/>
<ellipse cx="337.606" cy="400.396" rx="0.498679" ry="0.56015" fill="white"/>
<ellipse cx="412.408" cy="400.396" rx="0.498679" ry="0.56015" fill="white"/>
<ellipse cx="487.21" cy="400.396" rx="0.49872" ry="0.56015" fill="white"/>
<ellipse cx="562.013" cy="400.396" rx="0.498666" ry="0.56015" fill="white"/>
<ellipse cx="636.815" cy="400.396" rx="0.498693" ry="0.56015" fill="white"/>
<ellipse cx="711.616" cy="400.396" rx="0.498666" ry="0.56015" fill="white"/>
<ellipse cx="786.418" cy="399.276" rx="0.498556" ry="0.56015" fill="white"/>
<ellipse cx="73.3059" cy="456.413" rx="0.498679" ry="0.560181" fill="white"/>
<ellipse cx="148.108" cy="456.413" rx="0.498679" ry="0.560181" fill="white"/>
<ellipse cx="222.91" cy="456.413" rx="0.498659" ry="0.560181" fill="white"/>
<ellipse cx="297.712" cy="456.413" rx="0.498666" ry="0.560181" fill="white"/>
<ellipse cx="372.514" cy="456.413" rx="0.498679" ry="0.560181" fill="white"/>
<ellipse cx="447.316" cy="456.413" rx="0.498679" ry="0.560181" fill="white"/>
<ellipse cx="522.118" cy="456.413" rx="0.498638" ry="0.560181" fill="white"/>
<ellipse cx="596.92" cy="456.413" rx="0.498666" ry="0.560181" fill="white"/>
<ellipse cx="671.722" cy="456.413" rx="0.498693" ry="0.560181" fill="white"/>
<ellipse cx="746.524" cy="456.413" rx="0.498693" ry="0.560181" fill="white"/>
<ellipse cx="88.2663" cy="512.429" rx="0.498683" ry="0.560181" fill="white"/>
<ellipse cx="163.068" cy="512.429" rx="0.498679" ry="0.560181" fill="white"/>
<ellipse cx="237.87" cy="512.429" rx="0.4987" ry="0.560181" fill="white"/>
<ellipse cx="312.673" cy="512.429" rx="0.498679" ry="0.560181" fill="white"/>
<ellipse cx="387.474" cy="512.429" rx="0.498666" ry="0.560181" fill="white"/>
<ellipse cx="462.276" cy="512.429" rx="0.49872" ry="0.560181" fill="white"/>
<ellipse cx="537.079" cy="512.429" rx="0.498693" ry="0.560181" fill="white"/>
<ellipse cx="611.88" cy="512.429" rx="0.498693" ry="0.560181" fill="white"/>
<ellipse cx="686.683" cy="512.429" rx="0.498666" ry="0.560181" fill="white"/>
<ellipse cx="761.484" cy="512.429" rx="0.498857" ry="0.560181" fill="white"/>
<ellipse cx="123.174" cy="574.047" rx="0.498679" ry="0.56015" fill="white"/>
<ellipse cx="197.976" cy="574.047" rx="0.498679" ry="0.56015" fill="white"/>
<ellipse cx="272.778" cy="574.047" rx="0.498693" ry="0.56015" fill="white"/>
<ellipse cx="347.58" cy="574.047" rx="0.498679" ry="0.56015" fill="white"/>
<ellipse cx="422.382" cy="574.047" rx="0.498679" ry="0.56015" fill="white"/>
<ellipse cx="497.184" cy="574.047" rx="0.498666" ry="0.56015" fill="white"/>
<ellipse cx="571.986" cy="574.047" rx="0.498693" ry="0.56015" fill="white"/>
<ellipse cx="646.788" cy="574.047" rx="0.498693" ry="0.56015" fill="white"/>
<ellipse cx="721.59" cy="574.047" rx="0.498666" ry="0.56015" fill="white"/>
<ellipse cx="796.392" cy="572.927" rx="0.498693" ry="0.560181" fill="white"/>
<ellipse cx="93.2532" cy="635.665" rx="0.498679" ry="0.56015" fill="white"/>
<ellipse cx="168.055" cy="635.665" rx="0.498679" ry="0.56015" fill="white"/>
<ellipse cx="242.857" cy="635.665" rx="0.498673" ry="0.56015" fill="white"/>
<ellipse cx="317.659" cy="635.665" rx="0.498693" ry="0.56015" fill="white"/>
<ellipse cx="392.461" cy="635.665" rx="0.498679" ry="0.56015" fill="white"/>
<ellipse cx="467.263" cy="635.665" rx="0.498679" ry="0.56015" fill="white"/>
<ellipse cx="542.065" cy="635.665" rx="0.498666" ry="0.56015" fill="white"/>
<ellipse cx="616.867" cy="635.665" rx="0.498693" ry="0.56015" fill="white"/>
<ellipse cx="691.669" cy="635.665" rx="0.498693" ry="0.56015" fill="white"/>
<ellipse cx="766.471" cy="635.665" rx="0.498693" ry="0.56015" fill="white"/>
<ellipse cx="133.148" cy="696.163" rx="0.498666" ry="0.56015" fill="white"/>
<ellipse cx="207.95" cy="696.163" rx="0.498679" ry="0.56015" fill="white"/>
<ellipse cx="282.752" cy="696.163" rx="0.498707" ry="0.56015" fill="white"/>
<ellipse cx="357.554" cy="696.163" rx="0.498679" ry="0.56015" fill="white"/>
<ellipse cx="432.356" cy="696.163" rx="0.498625" ry="0.56015" fill="white"/>
<ellipse cx="507.158" cy="696.163" rx="0.49872" ry="0.56015" fill="white"/>
<ellipse cx="581.96" cy="696.163" rx="0.498693" ry="0.56015" fill="white"/>
<ellipse cx="656.762" cy="696.163" rx="0.498693" ry="0.56015" fill="white"/>
<ellipse cx="731.564" cy="696.163" rx="0.498666" ry="0.56015" fill="white"/>
<ellipse cx="103.227" cy="757.781" rx="0.498679" ry="0.560181" fill="white"/>
<ellipse cx="178.029" cy="757.781" rx="0.498679" ry="0.560181" fill="white"/>
<ellipse cx="252.831" cy="757.781" rx="0.498673" ry="0.560181" fill="white"/>
<ellipse cx="327.633" cy="757.781" rx="0.498679" ry="0.560181" fill="white"/>
<ellipse cx="402.435" cy="757.781" rx="0.498679" ry="0.560181" fill="white"/>
<ellipse cx="477.237" cy="757.781" rx="0.498625" ry="0.560181" fill="white"/>
<ellipse cx="552.039" cy="757.781" rx="0.498666" ry="0.560181" fill="white"/>
<ellipse cx="626.841" cy="757.781" rx="0.498693" ry="0.560181" fill="white"/>
<ellipse cx="701.643" cy="757.781" rx="0.498693" ry="0.560181" fill="white"/>
<ellipse cx="776.445" cy="757.781" rx="0.498693" ry="0.560181" fill="white"/>
<ellipse cx="73.3059" cy="819.399" rx="0.498679" ry="0.560181" fill="white"/>
<ellipse cx="148.108" cy="819.399" rx="0.498679" ry="0.560181" fill="white"/>
<ellipse cx="222.91" cy="819.399" rx="0.498659" ry="0.560181" fill="white"/>
<ellipse cx="297.712" cy="819.399" rx="0.498666" ry="0.560181" fill="white"/>
<ellipse cx="372.514" cy="819.399" rx="0.498679" ry="0.560181" fill="white"/>
<ellipse cx="447.316" cy="819.399" rx="0.498679" ry="0.560181" fill="white"/>
<ellipse cx="522.118" cy="819.399" rx="0.498638" ry="0.560181" fill="white"/>
<ellipse cx="596.92" cy="819.399" rx="0.498666" ry="0.560181" fill="white"/>
<ellipse cx="671.722" cy="819.399" rx="0.498693" ry="0.560181" fill="white"/>
<ellipse cx="746.524" cy="819.399" rx="0.498693" ry="0.560181" fill="white"/>
<ellipse cx="103.227" cy="881.017" rx="0.498679" ry="0.56015" fill="white"/>
<ellipse cx="178.029" cy="881.017" rx="0.498679" ry="0.56015" fill="white"/>
<ellipse cx="252.831" cy="881.017" rx="0.498673" ry="0.56015" fill="white"/>
<ellipse cx="327.633" cy="881.017" rx="0.498679" ry="0.56015" fill="white"/>
<ellipse cx="402.435" cy="881.017" rx="0.498679" ry="0.56015" fill="white"/>
<ellipse cx="477.237" cy="881.017" rx="0.498625" ry="0.56015" fill="white"/>
<ellipse cx="552.039" cy="881.017" rx="0.498666" ry="0.56015" fill="white"/>
<ellipse cx="626.841" cy="881.017" rx="0.498693" ry="0.56015" fill="white"/>
<ellipse cx="701.643" cy="881.017" rx="0.498693" ry="0.56015" fill="white"/>
<ellipse cx="83.2796" cy="937.033" rx="0.498673" ry="0.56015" fill="white"/>
<ellipse cx="158.082" cy="937.033" rx="0.498686" ry="0.56015" fill="white"/>
<ellipse cx="232.884" cy="937.033" rx="0.498652" ry="0.56015" fill="white"/>
<ellipse cx="307.686" cy="937.033" rx="0.498679" ry="0.56015" fill="white"/>
<ellipse cx="382.488" cy="937.033" rx="0.498679" ry="0.56015" fill="white"/>
<ellipse cx="457.29" cy="937.033" rx="0.498679" ry="0.56015" fill="white"/>
<ellipse cx="532.092" cy="937.033" rx="0.49872" ry="0.56015" fill="white"/>
<ellipse cx="606.894" cy="937.033" rx="0.498666" ry="0.56015" fill="white"/>
<ellipse cx="681.695" cy="937.033" rx="0.498693" ry="0.56015" fill="white"/>
<ellipse cx="681.695" cy="937.033" rx="0.498693" ry="0.56015" fill="white"/>
<ellipse cx="776.445" cy="881.017" rx="0.498693" ry="0.56015" fill="white"/>
<ellipse cx="0.498678" cy="29.5684" rx="0.498678" ry="0.560165" fill="white"/>
<ellipse cx="75.3007" cy="29.5684" rx="0.498678" ry="0.560165" fill="white"/>
<ellipse cx="150.103" cy="29.5684" rx="0.498693" ry="0.560165" fill="white"/>
<ellipse cx="224.905" cy="29.5684" rx="0.498659" ry="0.560165" fill="white"/>
<ellipse cx="299.707" cy="29.5684" rx="0.498679" ry="0.560165" fill="white"/>
<ellipse cx="374.509" cy="29.5684" rx="0.498679" ry="0.560165" fill="white"/>
<ellipse cx="449.311" cy="29.5684" rx="0.49872" ry="0.560165" fill="white"/>
<ellipse cx="524.113" cy="29.5684" rx="0.498693" ry="0.560165" fill="white"/>
<ellipse cx="598.915" cy="29.5684" rx="0.498666" ry="0.560165" fill="white"/>
<ellipse cx="673.717" cy="29.5684" rx="0.498666" ry="0.560165" fill="white"/>
<ellipse cx="35.4063" cy="85.5846" rx="0.498678" ry="0.560165" fill="white"/>
<ellipse cx="110.208" cy="85.5846" rx="0.498679" ry="0.560165" fill="white"/>
<ellipse cx="185.01" cy="85.5846" rx="0.498679" ry="0.560165" fill="white"/>
<ellipse cx="259.812" cy="85.5846" rx="0.498659" ry="0.560165" fill="white"/>
<ellipse cx="334.614" cy="85.5846" rx="0.498666" ry="0.560165" fill="white"/>
<ellipse cx="409.416" cy="85.5846" rx="0.498693" ry="0.560165" fill="white"/>
<ellipse cx="484.218" cy="85.5846" rx="0.49872" ry="0.560165" fill="white"/>
<ellipse cx="559.021" cy="85.5846" rx="0.498666" ry="0.560165" fill="white"/>
<ellipse cx="633.822" cy="85.5846" rx="0.498693" ry="0.560165" fill="white"/>
<ellipse cx="708.624" cy="85.5846" rx="0.498666" ry="0.560165" fill="white"/>
<ellipse cx="20.4459" cy="141.601" rx="0.498678" ry="0.560165" fill="white"/>
<ellipse cx="95.2479" cy="141.601" rx="0.498679" ry="0.560165" fill="white"/>
<ellipse cx="170.05" cy="141.601" rx="0.498679" ry="0.560165" fill="white"/>
<ellipse cx="244.852" cy="141.601" rx="0.498673" ry="0.560165" fill="white"/>
<ellipse cx="319.654" cy="141.601" rx="0.498679" ry="0.560165" fill="white"/>
<ellipse cx="394.456" cy="141.601" rx="0.49872" ry="0.560165" fill="white"/>
<ellipse cx="469.258" cy="141.601" rx="0.498679" ry="0.560165" fill="white"/>
<ellipse cx="544.06" cy="141.601" rx="0.498693" ry="0.560165" fill="white"/>
<ellipse cx="618.862" cy="141.601" rx="0.498666" ry="0.560165" fill="white"/>
<ellipse cx="693.664" cy="141.601" rx="0.498666" ry="0.560165" fill="white"/>
<ellipse cx="35.4063" cy="197.617" rx="0.498678" ry="0.560165" fill="white"/>
<ellipse cx="110.208" cy="197.617" rx="0.498679" ry="0.560165" fill="white"/>
<ellipse cx="185.01" cy="197.617" rx="0.498679" ry="0.560165" fill="white"/>
<ellipse cx="259.812" cy="197.617" rx="0.498659" ry="0.560165" fill="white"/>
<ellipse cx="334.614" cy="197.617" rx="0.498666" ry="0.560165" fill="white"/>
<ellipse cx="409.416" cy="197.617" rx="0.498693" ry="0.560165" fill="white"/>
<ellipse cx="484.218" cy="197.617" rx="0.49872" ry="0.560165" fill="white"/>
<ellipse cx="559.021" cy="197.617" rx="0.498666" ry="0.560165" fill="white"/>
<ellipse cx="633.822" cy="197.617" rx="0.498693" ry="0.560165" fill="white"/>
<ellipse cx="708.624" cy="197.617" rx="0.498666" ry="0.560165" fill="white"/>
<ellipse cx="10.4723" cy="254.754" rx="0.498678" ry="0.560165" fill="white"/>
<ellipse cx="85.2742" cy="254.754" rx="0.498671" ry="0.560165" fill="white"/>
<ellipse cx="160.076" cy="254.754" rx="0.498679" ry="0.560165" fill="white"/>
<ellipse cx="234.878" cy="254.754" rx="0.498679" ry="0.560165" fill="white"/>
<ellipse cx="309.68" cy="254.754" rx="0.498679" ry="0.560165" fill="white"/>
<ellipse cx="384.482" cy="254.754" rx="0.498679" ry="0.560165" fill="white"/>
<ellipse cx="459.284" cy="254.754" rx="0.498625" ry="0.560165" fill="white"/>
<ellipse cx="534.086" cy="254.754" rx="0.498666" ry="0.560165" fill="white"/>
<ellipse cx="608.888" cy="254.754" rx="0.498666" ry="0.560165" fill="white"/>
<ellipse cx="683.69" cy="254.754" rx="0.498693" ry="0.560165" fill="white"/>
<ellipse cx="40.393" cy="310.77" rx="0.498678" ry="0.560165" fill="white"/>
<ellipse cx="115.195" cy="310.77" rx="0.498679" ry="0.560165" fill="white"/>
<ellipse cx="189.997" cy="310.77" rx="0.498679" ry="0.560165" fill="white"/>
<ellipse cx="264.799" cy="310.77" rx="0.498679" ry="0.560165" fill="white"/>
<ellipse cx="339.601" cy="310.77" rx="0.498679" ry="0.560165" fill="white"/>
<ellipse cx="414.403" cy="310.77" rx="0.498625" ry="0.560165" fill="white"/>
<ellipse cx="489.205" cy="310.77" rx="0.498679" ry="0.560165" fill="white"/>
<ellipse cx="564.007" cy="310.77" rx="0.498666" ry="0.560165" fill="white"/>
<ellipse cx="638.809" cy="310.77" rx="0.498693" ry="0.560165" fill="white"/>
<ellipse cx="30.4195" cy="366.786" rx="0.498678" ry="0.56015" fill="white"/>
<ellipse cx="105.222" cy="366.786" rx="0.498679" ry="0.56015" fill="white"/>
<ellipse cx="180.023" cy="366.786" rx="0.498679" ry="0.56015" fill="white"/>
<ellipse cx="254.826" cy="366.786" rx="0.498659" ry="0.56015" fill="white"/>
<ellipse cx="329.628" cy="366.786" rx="0.498679" ry="0.56015" fill="white"/>
<ellipse cx="404.43" cy="366.786" rx="0.49872" ry="0.56015" fill="white"/>
<ellipse cx="479.232" cy="366.786" rx="0.498679" ry="0.56015" fill="white"/>
<ellipse cx="554.034" cy="366.786" rx="0.498666" ry="0.56015" fill="white"/>
<ellipse cx="628.835" cy="366.786" rx="0.498666" ry="0.56015" fill="white"/>
<ellipse cx="703.638" cy="366.786" rx="0.498693" ry="0.56015" fill="white"/>
<ellipse cx="60.3404" cy="422.803" rx="0.498679" ry="0.560181" fill="white"/>
<ellipse cx="135.142" cy="422.803" rx="0.498679" ry="0.560181" fill="white"/>
<ellipse cx="209.944" cy="422.803" rx="0.498679" ry="0.560181" fill="white"/>
<ellipse cx="284.746" cy="422.803" rx="0.498679" ry="0.560181" fill="white"/>
<ellipse cx="359.548" cy="422.803" rx="0.498679" ry="0.560181" fill="white"/>
<ellipse cx="434.35" cy="422.803" rx="0.498679" ry="0.560181" fill="white"/>
<ellipse cx="509.152" cy="422.803" rx="0.498611" ry="0.560181" fill="white"/>
<ellipse cx="583.954" cy="422.803" rx="0.498666" ry="0.560181" fill="white"/>
<ellipse cx="658.757" cy="422.803" rx="0.498693" ry="0.560181" fill="white"/>
<ellipse cx="733.558" cy="422.803" rx="0.498666" ry="0.560181" fill="white"/>
<ellipse cx="20.4459" cy="478.819" rx="0.498678" ry="0.56015" fill="white"/>
<ellipse cx="95.2479" cy="478.819" rx="0.498679" ry="0.56015" fill="white"/>
<ellipse cx="170.05" cy="478.819" rx="0.498679" ry="0.56015" fill="white"/>
<ellipse cx="244.852" cy="478.819" rx="0.498673" ry="0.56015" fill="white"/>
<ellipse cx="319.654" cy="478.819" rx="0.498679" ry="0.56015" fill="white"/>
<ellipse cx="394.456" cy="478.819" rx="0.49872" ry="0.56015" fill="white"/>
<ellipse cx="469.258" cy="478.819" rx="0.498679" ry="0.56015" fill="white"/>
<ellipse cx="544.06" cy="478.819" rx="0.498693" ry="0.56015" fill="white"/>
<ellipse cx="618.862" cy="478.819" rx="0.498666" ry="0.56015" fill="white"/>
<ellipse cx="693.664" cy="478.819" rx="0.498666" ry="0.56015" fill="white"/>
<ellipse cx="35.4063" cy="534.836" rx="0.498678" ry="0.560181" fill="white"/>
<ellipse cx="110.208" cy="534.836" rx="0.498679" ry="0.560181" fill="white"/>
<ellipse cx="185.01" cy="534.836" rx="0.498679" ry="0.560181" fill="white"/>
<ellipse cx="259.812" cy="534.836" rx="0.498659" ry="0.560181" fill="white"/>
<ellipse cx="334.614" cy="534.836" rx="0.498666" ry="0.560181" fill="white"/>
<ellipse cx="409.416" cy="534.836" rx="0.498693" ry="0.560181" fill="white"/>
<ellipse cx="484.218" cy="534.836" rx="0.49872" ry="0.560181" fill="white"/>
<ellipse cx="559.021" cy="534.836" rx="0.498666" ry="0.560181" fill="white"/>
<ellipse cx="633.822" cy="534.836" rx="0.498693" ry="0.560181" fill="white"/>
<ellipse cx="708.624" cy="534.836" rx="0.498666" ry="0.560181" fill="white"/>
<ellipse cx="70.3139" cy="596.453" rx="0.498678" ry="0.56015" fill="white"/>
<ellipse cx="145.116" cy="596.453" rx="0.498666" ry="0.56015" fill="white"/>
<ellipse cx="219.918" cy="596.453" rx="0.498686" ry="0.56015" fill="white"/>
<ellipse cx="294.72" cy="596.453" rx="0.498679" ry="0.56015" fill="white"/>
<ellipse cx="369.522" cy="596.453" rx="0.498666" ry="0.56015" fill="white"/>
<ellipse cx="444.324" cy="596.453" rx="0.498679" ry="0.56015" fill="white"/>
<ellipse cx="519.126" cy="596.453" rx="0.49872" ry="0.56015" fill="white"/>
<ellipse cx="593.928" cy="596.453" rx="0.498693" ry="0.56015" fill="white"/>
<ellipse cx="668.73" cy="596.453" rx="0.498666" ry="0.56015" fill="white"/>
<ellipse cx="743.532" cy="596.453" rx="0.498666" ry="0.56015" fill="white"/>
<ellipse cx="40.393" cy="658.071" rx="0.498678" ry="0.560181" fill="white"/>
<ellipse cx="115.195" cy="658.071" rx="0.498679" ry="0.560181" fill="white"/>
<ellipse cx="189.997" cy="658.071" rx="0.498679" ry="0.560181" fill="white"/>
<ellipse cx="264.799" cy="658.071" rx="0.498679" ry="0.560181" fill="white"/>
<ellipse cx="339.601" cy="658.071" rx="0.498679" ry="0.560181" fill="white"/>
<ellipse cx="414.403" cy="658.071" rx="0.498625" ry="0.560181" fill="white"/>
<ellipse cx="489.205" cy="658.071" rx="0.498679" ry="0.560181" fill="white"/>
<ellipse cx="564.007" cy="658.071" rx="0.498666" ry="0.560181" fill="white"/>
<ellipse cx="638.809" cy="658.071" rx="0.498693" ry="0.560181" fill="white"/>
<ellipse cx="713.611" cy="658.071" rx="0.498666" ry="0.560181" fill="white"/>
<ellipse cx="80.2875" cy="718.569" rx="0.498683" ry="0.560119" fill="white"/>
<ellipse cx="155.089" cy="718.569" rx="0.498666" ry="0.560119" fill="white"/>
<ellipse cx="229.892" cy="718.569" rx="0.498707" ry="0.560119" fill="white"/>
<ellipse cx="304.694" cy="718.569" rx="0.498679" ry="0.560119" fill="white"/>
<ellipse cx="379.496" cy="718.569" rx="0.498666" ry="0.560119" fill="white"/>
<ellipse cx="454.298" cy="718.569" rx="0.498693" ry="0.560119" fill="white"/>
<ellipse cx="529.1" cy="718.569" rx="0.49872" ry="0.560119" fill="white"/>
<ellipse cx="603.902" cy="718.569" rx="0.498666" ry="0.560119" fill="white"/>
<ellipse cx="678.704" cy="718.569" rx="0.498693" ry="0.560119" fill="white"/>
<ellipse cx="50.3668" cy="780.187" rx="0.498678" ry="0.560181" fill="white"/>
<ellipse cx="125.169" cy="780.187" rx="0.498666" ry="0.560181" fill="white"/>
<ellipse cx="199.971" cy="780.187" rx="0.498679" ry="0.560181" fill="white"/>
<ellipse cx="274.773" cy="780.187" rx="0.498707" ry="0.560181" fill="white"/>
<ellipse cx="349.575" cy="780.187" rx="0.498679" ry="0.560181" fill="white"/>
<ellipse cx="424.377" cy="780.187" rx="0.498679" ry="0.560181" fill="white"/>
<ellipse cx="499.179" cy="780.187" rx="0.498693" ry="0.560181" fill="white"/>
<ellipse cx="573.981" cy="780.187" rx="0.498666" ry="0.560181" fill="white"/>
<ellipse cx="648.783" cy="780.187" rx="0.498666" ry="0.560181" fill="white"/>
<ellipse cx="723.585" cy="780.187" rx="0.498693" ry="0.560181" fill="white"/>
<ellipse cx="20.4459" cy="841.805" rx="0.498678" ry="0.56015" fill="white"/>
<ellipse cx="95.2479" cy="841.805" rx="0.498679" ry="0.56015" fill="white"/>
<ellipse cx="170.05" cy="841.805" rx="0.498679" ry="0.56015" fill="white"/>
<ellipse cx="244.852" cy="841.805" rx="0.498673" ry="0.56015" fill="white"/>
<ellipse cx="319.654" cy="841.805" rx="0.498679" ry="0.56015" fill="white"/>
<ellipse cx="394.456" cy="841.805" rx="0.49872" ry="0.56015" fill="white"/>
<ellipse cx="469.258" cy="841.805" rx="0.498679" ry="0.56015" fill="white"/>
<ellipse cx="544.06" cy="841.805" rx="0.498693" ry="0.56015" fill="white"/>
<ellipse cx="618.862" cy="841.805" rx="0.498666" ry="0.56015" fill="white"/>
<ellipse cx="693.664" cy="841.805" rx="0.498666" ry="0.56015" fill="white"/>
<ellipse cx="50.3668" cy="903.423" rx="0.498678" ry="0.560088" fill="white"/>
<ellipse cx="125.169" cy="903.423" rx="0.498666" ry="0.560088" fill="white"/>
<ellipse cx="199.971" cy="903.423" rx="0.498679" ry="0.560088" fill="white"/>
<ellipse cx="274.773" cy="903.423" rx="0.498707" ry="0.560088" fill="white"/>
<ellipse cx="349.575" cy="903.423" rx="0.498679" ry="0.560088" fill="white"/>
<ellipse cx="424.377" cy="903.423" rx="0.498679" ry="0.560088" fill="white"/>
<ellipse cx="499.179" cy="903.423" rx="0.498693" ry="0.560088" fill="white"/>
<ellipse cx="573.981" cy="903.423" rx="0.498666" ry="0.560088" fill="white"/>
<ellipse cx="648.783" cy="903.423" rx="0.498666" ry="0.560088" fill="white"/>
<ellipse cx="30.4195" cy="959.44" rx="0.498678" ry="0.56015" fill="white"/>
<ellipse cx="105.222" cy="959.44" rx="0.498679" ry="0.56015" fill="white"/>
<ellipse cx="180.023" cy="959.44" rx="0.498679" ry="0.56015" fill="white"/>
<ellipse cx="254.826" cy="959.44" rx="0.498659" ry="0.56015" fill="white"/>
<ellipse cx="329.628" cy="959.44" rx="0.498679" ry="0.56015" fill="white"/>
<ellipse cx="404.43" cy="959.44" rx="0.49872" ry="0.56015" fill="white"/>
<ellipse cx="479.232" cy="959.44" rx="0.498679" ry="0.56015" fill="white"/>
<ellipse cx="554.034" cy="959.44" rx="0.498666" ry="0.56015" fill="white"/>
<ellipse cx="628.835" cy="959.44" rx="0.498666" ry="0.56015" fill="white"/>
<ellipse cx="628.835" cy="959.44" rx="0.498666" ry="0.56015" fill="white"/>
<ellipse cx="723.585" cy="903.423" rx="0.498693" ry="0.560088" fill="white"/>
<ellipse cx="37.401" cy="80.5433" rx="0.99736" ry="1.12033" fill="white"/>
<ellipse cx="187.005" cy="86.1448" rx="0.997363" ry="1.12032" fill="white"/>
<ellipse cx="336.609" cy="80.5433" rx="0.997363" ry="1.12033" fill="white"/>
<ellipse cx="486.213" cy="74.9416" rx="0.997322" ry="1.12032" fill="white"/>
<ellipse cx="635.817" cy="80.5433" rx="0.997363" ry="1.12033" fill="white"/>
<ellipse cx="785.421" cy="86.1448" rx="0.997254" ry="1.12032" fill="white"/>
<ellipse cx="97.2426" cy="192.576" rx="0.997353" ry="1.12033" fill="white"/>
<ellipse cx="246.847" cy="198.178" rx="0.997336" ry="1.12033" fill="white"/>
<ellipse cx="396.451" cy="192.576" rx="0.997322" ry="1.12033" fill="white"/>
<ellipse cx="546.055" cy="186.974" rx="0.997363" ry="1.12033" fill="white"/>
<ellipse cx="695.659" cy="192.576" rx="0.997336" ry="1.12033" fill="white"/>
<ellipse cx="845.263" cy="198.178" rx="0.997363" ry="1.12033" fill="white"/>
<ellipse cx="72.3087" cy="305.729" rx="0.997362" ry="1.12033" fill="white"/>
<ellipse cx="221.913" cy="311.33" rx="0.997363" ry="1.12033" fill="white"/>
<ellipse cx="371.517" cy="305.729" rx="0.997363" ry="1.12033" fill="white"/>
<ellipse cx="521.121" cy="300.127" rx="0.997391" ry="1.12031" fill="white"/>
<ellipse cx="670.725" cy="305.729" rx="0.997336" ry="1.12033" fill="white"/>
<ellipse cx="820.329" cy="310.21" rx="0.997363" ry="1.12033" fill="white"/>
<ellipse cx="47.3747" cy="417.762" rx="0.997362" ry="1.12033" fill="white"/>
<ellipse cx="196.979" cy="423.363" rx="0.997356" ry="1.12033" fill="white"/>
<ellipse cx="346.583" cy="417.762" rx="0.99735" ry="1.12033" fill="white"/>
<ellipse cx="496.187" cy="412.16" rx="0.997418" ry="1.12033" fill="white"/>
<ellipse cx="645.791" cy="417.762" rx="0.997363" ry="1.12033" fill="white"/>
<ellipse cx="795.395" cy="422.243" rx="0.997254" ry="1.12033" fill="white"/>
<ellipse cx="127.164" cy="529.794" rx="0.99737" ry="1.12033" fill="white"/>
<ellipse cx="276.768" cy="535.396" rx="0.997363" ry="1.12036" fill="white"/>
<ellipse cx="426.371" cy="529.794" rx="0.99735" ry="1.12033" fill="white"/>
<ellipse cx="575.975" cy="524.192" rx="0.997363" ry="1.12033" fill="white"/>
<ellipse cx="725.58" cy="529.794" rx="0.997363" ry="1.12033" fill="white"/>
<ellipse cx="875.184" cy="534.276" rx="0.997254" ry="1.12033" fill="white"/>
<ellipse cx="33.9103" cy="641.827" rx="0.99736" ry="1.12033" fill="white"/>
<ellipse cx="183.514" cy="647.428" rx="0.997356" ry="1.12033" fill="white"/>
<ellipse cx="333.118" cy="641.827" rx="0.997363" ry="1.12033" fill="white"/>
<ellipse cx="482.722" cy="636.225" rx="0.997363" ry="1.12033" fill="white"/>
<ellipse cx="632.326" cy="641.827" rx="0.997363" ry="1.12033" fill="white"/>
<ellipse cx="781.93" cy="646.308" rx="0.997281" ry="1.12036" fill="white"/>
<ellipse cx="45.3799" cy="738.175" rx="0.997358" ry="1.12033" fill="white"/>
<ellipse cx="194.984" cy="743.777" rx="0.997363" ry="1.12033" fill="white"/>
<ellipse cx="344.588" cy="738.175" rx="0.997363" ry="1.12033" fill="white"/>
<ellipse cx="494.192" cy="732.573" rx="0.997336" ry="1.12033" fill="white"/>
<ellipse cx="643.796" cy="738.175" rx="0.997363" ry="1.12033" fill="white"/>
<ellipse cx="793.4" cy="743.777" rx="0.997363" ry="1.12033" fill="white"/>
<ellipse cx="81.7836" cy="858.05" rx="0.99736" ry="1.12033" fill="white"/>
<ellipse cx="231.388" cy="863.652" rx="0.997336" ry="1.1203" fill="white"/>
<ellipse cx="380.992" cy="858.05" rx="0.997363" ry="1.12033" fill="white"/>
<ellipse cx="530.596" cy="852.449" rx="0.997308" ry="1.12033" fill="white"/>
<ellipse cx="680.2" cy="858.05" rx="0.997336" ry="1.12033" fill="white"/>
<ellipse cx="829.804" cy="863.652" rx="0.997391" ry="1.1203" fill="white"/>
<ellipse cx="718.598" cy="957.759" rx="0.997363" ry="1.12036" fill="white"/>
<ellipse cx="147.111" cy="35.7301" rx="0.99735" ry="1.12032" fill="white"/>
<ellipse cx="296.715" cy="30.1286" rx="0.99735" ry="1.12032" fill="white"/>
<ellipse cx="446.319" cy="24.5269" rx="0.99735" ry="1.12033" fill="white"/>
<ellipse cx="595.923" cy="30.1286" rx="0.997363" ry="1.12032" fill="white"/>
<ellipse cx="745.527" cy="35.7301" rx="0.997391" ry="1.12032" fill="white"/>
<ellipse cx="117.19" cy="147.763" rx="0.99736" ry="1.12035" fill="white"/>
<ellipse cx="266.794" cy="142.161" rx="0.997363" ry="1.12033" fill="white"/>
<ellipse cx="416.398" cy="136.56" rx="0.997404" ry="1.12033" fill="white"/>
<ellipse cx="566.002" cy="142.161" rx="0.997391" ry="1.12033" fill="white"/>
<ellipse cx="715.606" cy="147.763" rx="0.997336" ry="1.12035" fill="white"/>
<ellipse cx="27.4274" cy="255.314" rx="0.997361" ry="1.12033" fill="white"/>
<ellipse cx="177.031" cy="260.916" rx="0.997356" ry="1.12031" fill="white"/>
<ellipse cx="326.635" cy="255.314" rx="0.997363" ry="1.12033" fill="white"/>
<ellipse cx="476.239" cy="249.712" rx="0.997377" ry="1.12033" fill="white"/>
<ellipse cx="625.844" cy="255.314" rx="0.997336" ry="1.12033" fill="white"/>
<ellipse cx="775.448" cy="259.796" rx="0.997363" ry="1.12033" fill="white"/>
<ellipse cx="152.097" cy="372.948" rx="0.997356" ry="1.12033" fill="white"/>
<ellipse cx="301.701" cy="367.347" rx="0.99735" ry="1.1203" fill="white"/>
<ellipse cx="451.306" cy="361.745" rx="0.997404" ry="1.12033" fill="white"/>
<ellipse cx="600.91" cy="367.347" rx="0.997363" ry="1.1203" fill="white"/>
<ellipse cx="750.514" cy="372.948" rx="0.997363" ry="1.12033" fill="white"/>
<ellipse cx="127.163" cy="484.981" rx="0.99737" ry="1.12033" fill="white"/>
<ellipse cx="276.768" cy="479.379" rx="0.997363" ry="1.12033" fill="white"/>
<ellipse cx="426.371" cy="473.778" rx="0.99735" ry="1.12033" fill="white"/>
<ellipse cx="575.975" cy="479.379" rx="0.997363" ry="1.12033" fill="white"/>
<ellipse cx="725.58" cy="484.981" rx="0.997363" ry="1.12033" fill="white"/>
<ellipse cx="57.3482" cy="591.412" rx="0.99736" ry="1.1203" fill="white"/>
<ellipse cx="206.952" cy="597.014" rx="0.997363" ry="1.12033" fill="white"/>
<ellipse cx="356.556" cy="591.412" rx="0.997363" ry="1.1203" fill="white"/>
<ellipse cx="506.16" cy="585.81" rx="0.997418" ry="1.12033" fill="white"/>
<ellipse cx="655.764" cy="591.412" rx="0.997391" ry="1.1203" fill="white"/>
<ellipse cx="805.368" cy="595.893" rx="0.997363" ry="1.12033" fill="white"/>
<ellipse cx="113.699" cy="707.926" rx="0.99736" ry="1.12033" fill="white"/>
<ellipse cx="263.303" cy="702.325" rx="0.997377" ry="1.12033" fill="white"/>
<ellipse cx="412.907" cy="696.723" rx="0.997404" ry="1.12033" fill="white"/>
<ellipse cx="562.511" cy="702.325" rx="0.997363" ry="1.12033" fill="white"/>
<ellipse cx="712.115" cy="707.926" rx="0.997363" ry="1.12033" fill="white"/>
<ellipse cx="125.169" cy="805.395" rx="0.99735" ry="1.12033" fill="white"/>
<ellipse cx="274.773" cy="799.793" rx="0.99735" ry="1.1203" fill="white"/>
<ellipse cx="424.377" cy="794.191" rx="0.997404" ry="1.12036" fill="white"/>
<ellipse cx="573.981" cy="799.793" rx="0.997363" ry="1.1203" fill="white"/>
<ellipse cx="723.585" cy="805.395" rx="0.997363" ry="1.12033" fill="white"/>
<ellipse cx="11.9684" cy="919.668" rx="0.997357" ry="1.1203" fill="white"/>
<ellipse cx="161.572" cy="925.27" rx="0.997356" ry="1.1203" fill="white"/>
<ellipse cx="311.176" cy="919.668" rx="0.997363" ry="1.1203" fill="white"/>
<ellipse cx="460.78" cy="914.067" rx="0.997322" ry="1.1203" fill="white"/>
<ellipse cx="610.384" cy="919.668" rx="0.997363" ry="1.1203" fill="white"/>
<ellipse cx="759.989" cy="925.27" rx="0.997281" ry="1.1203" fill="white"/>
<ellipse cx="752.244" cy="1.56017" rx="0.498677" ry="0.560165" fill="white"/>
<ellipse cx="827.046" cy="1.56017" rx="0.498679" ry="0.560165" fill="white"/>
<ellipse cx="901.848" cy="1.56017" rx="0.498679" ry="0.560165" fill="white"/>
<ellipse cx="976.65" cy="1.56017" rx="0.498673" ry="0.560165" fill="white"/>
<ellipse cx="1051.45" cy="1.56017" rx="0.498679" ry="0.560165" fill="white"/>
<ellipse cx="1126.25" cy="1.56017" rx="0.498679" ry="0.560165" fill="white"/>
<ellipse cx="1201.06" cy="1.56017" rx="0.498625" ry="0.560165" fill="white"/>
<ellipse cx="1275.86" cy="1.56017" rx="0.498666" ry="0.560165" fill="white"/>
<ellipse cx="1350.66" cy="1.56017" rx="0.498693" ry="0.560165" fill="white"/>
<ellipse cx="1425.46" cy="1.56017" rx="0.498693" ry="0.560165" fill="white"/>
<ellipse cx="787.151" cy="57.5764" rx="0.498679" ry="0.560165" fill="white"/>
<ellipse cx="861.954" cy="57.5764" rx="0.49869" ry="0.560165" fill="white"/>
<ellipse cx="936.756" cy="57.5764" rx="0.498679" ry="0.560165" fill="white"/>
<ellipse cx="1011.56" cy="57.5764" rx="0.498666" ry="0.560165" fill="white"/>
<ellipse cx="1086.36" cy="57.5764" rx="0.498693" ry="0.560165" fill="white"/>
<ellipse cx="1161.16" cy="57.5764" rx="0.498679" ry="0.560165" fill="white"/>
<ellipse cx="1235.96" cy="57.5764" rx="0.498693" ry="0.560165" fill="white"/>
<ellipse cx="1310.77" cy="57.5764" rx="0.498666" ry="0.560165" fill="white"/>
<ellipse cx="1385.57" cy="57.5764" rx="0.498693" ry="0.560165" fill="white"/>
<ellipse cx="1460.37" cy="57.5764" rx="0.498693" ry="0.560165" fill="white"/>
<ellipse cx="772.191" cy="113.593" rx="0.49868" ry="0.560165" fill="white"/>
<ellipse cx="846.993" cy="113.593" rx="0.498679" ry="0.560165" fill="white"/>
<ellipse cx="921.795" cy="113.593" rx="0.498679" ry="0.560165" fill="white"/>
<ellipse cx="996.597" cy="113.593" rx="0.498693" ry="0.560165" fill="white"/>
<ellipse cx="1071.4" cy="113.593" rx="0.498679" ry="0.560165" fill="white"/>
<ellipse cx="1146.2" cy="113.593" rx="0.498679" ry="0.560165" fill="white"/>
<ellipse cx="1221" cy="113.593" rx="0.498666" ry="0.560165" fill="white"/>
<ellipse cx="1295.81" cy="113.593" rx="0.498693" ry="0.560165" fill="white"/>
<ellipse cx="1370.61" cy="113.593" rx="0.498693" ry="0.560165" fill="white"/>
<ellipse cx="1445.41" cy="113.593" rx="0.498666" ry="0.560165" fill="white"/>
<ellipse cx="787.151" cy="169.609" rx="0.498679" ry="0.560165" fill="white"/>
<ellipse cx="861.954" cy="169.609" rx="0.49869" ry="0.560165" fill="white"/>
<ellipse cx="936.756" cy="169.609" rx="0.498679" ry="0.560165" fill="white"/>
<ellipse cx="1011.56" cy="169.609" rx="0.498666" ry="0.560165" fill="white"/>
<ellipse cx="1086.36" cy="169.609" rx="0.498693" ry="0.560165" fill="white"/>
<ellipse cx="1161.16" cy="169.609" rx="0.498679" ry="0.560165" fill="white"/>
<ellipse cx="1235.96" cy="169.609" rx="0.498693" ry="0.560165" fill="white"/>
<ellipse cx="1310.77" cy="169.609" rx="0.498666" ry="0.560165" fill="white"/>
<ellipse cx="1385.57" cy="169.609" rx="0.498693" ry="0.560165" fill="white"/>
<ellipse cx="1460.37" cy="169.609" rx="0.498693" ry="0.560165" fill="white"/>
<ellipse cx="762.217" cy="226.746" rx="0.498678" ry="0.560165" fill="white"/>
<ellipse cx="837.02" cy="226.746" rx="0.498679" ry="0.560165" fill="white"/>
<ellipse cx="911.821" cy="226.746" rx="0.498673" ry="0.560165" fill="white"/>
<ellipse cx="986.623" cy="226.746" rx="0.4987" ry="0.560165" fill="white"/>
<ellipse cx="1061.43" cy="226.746" rx="0.498679" ry="0.560165" fill="white"/>
<ellipse cx="1136.23" cy="226.746" rx="0.498679" ry="0.560165" fill="white"/>
<ellipse cx="1211.03" cy="226.746" rx="0.49872" ry="0.560165" fill="white"/>
<ellipse cx="1285.83" cy="226.746" rx="0.498666" ry="0.560165" fill="white"/>
<ellipse cx="1360.63" cy="226.746" rx="0.498693" ry="0.560165" fill="white"/>
<ellipse cx="1435.44" cy="226.746" rx="0.498666" ry="0.560165" fill="white"/>
<ellipse cx="792.138" cy="282.762" rx="0.498678" ry="0.560165" fill="white"/>
<ellipse cx="866.94" cy="282.762" rx="0.498679" ry="0.560165" fill="white"/>
<ellipse cx="941.742" cy="282.762" rx="0.4987" ry="0.560165" fill="white"/>
<ellipse cx="1016.54" cy="282.762" rx="0.498679" ry="0.560165" fill="white"/>
<ellipse cx="1091.35" cy="282.762" rx="0.498679" ry="0.560165" fill="white"/>
<ellipse cx="1166.15" cy="282.762" rx="0.49872" ry="0.560165" fill="white"/>
<ellipse cx="1240.95" cy="282.762" rx="0.498611" ry="0.560165" fill="white"/>
<ellipse cx="1315.75" cy="282.762" rx="0.498693" ry="0.560165" fill="white"/>
<ellipse cx="1390.55" cy="282.762" rx="0.498666" ry="0.560165" fill="white"/>
<ellipse cx="782.165" cy="338.778" rx="0.498678" ry="0.560165" fill="white"/>
<ellipse cx="856.967" cy="338.778" rx="0.498666" ry="0.560165" fill="white"/>
<ellipse cx="931.769" cy="338.778" rx="0.498679" ry="0.560165" fill="white"/>
<ellipse cx="1006.57" cy="338.778" rx="0.498707" ry="0.560165" fill="white"/>
<ellipse cx="1081.37" cy="338.778" rx="0.498679" ry="0.560165" fill="white"/>
<ellipse cx="1156.17" cy="338.778" rx="0.498625" ry="0.560165" fill="white"/>
<ellipse cx="1230.98" cy="338.778" rx="0.49872" ry="0.560165" fill="white"/>
<ellipse cx="1305.78" cy="338.778" rx="0.498693" ry="0.560165" fill="white"/>
<ellipse cx="1380.58" cy="338.778" rx="0.498693" ry="0.560165" fill="white"/>
<ellipse cx="1455.38" cy="338.778" rx="0.498666" ry="0.560165" fill="white"/>
<ellipse cx="812.086" cy="394.795" rx="0.498683" ry="0.56015" fill="white"/>
<ellipse cx="886.887" cy="394.795" rx="0.498679" ry="0.56015" fill="white"/>
<ellipse cx="961.69" cy="394.795" rx="0.4987" ry="0.56015" fill="white"/>
<ellipse cx="1036.49" cy="394.795" rx="0.498679" ry="0.56015" fill="white"/>
<ellipse cx="1111.29" cy="394.795" rx="0.498666" ry="0.56015" fill="white"/>
<ellipse cx="1186.1" cy="394.795" rx="0.49872" ry="0.56015" fill="white"/>
<ellipse cx="1260.9" cy="394.795" rx="0.498693" ry="0.56015" fill="white"/>
<ellipse cx="1335.7" cy="394.795" rx="0.498693" ry="0.56015" fill="white"/>
<ellipse cx="1410.5" cy="394.795" rx="0.498666" ry="0.56015" fill="white"/>
<ellipse cx="1485.3" cy="394.795" rx="0.498857" ry="0.56015" fill="white"/>
<ellipse cx="772.191" cy="450.811" rx="0.49868" ry="0.56015" fill="white"/>
<ellipse cx="846.993" cy="450.811" rx="0.498679" ry="0.56015" fill="white"/>
<ellipse cx="921.795" cy="450.811" rx="0.498679" ry="0.56015" fill="white"/>
<ellipse cx="996.597" cy="450.811" rx="0.498693" ry="0.56015" fill="white"/>
<ellipse cx="1071.4" cy="450.811" rx="0.498679" ry="0.56015" fill="white"/>
<ellipse cx="1146.2" cy="450.811" rx="0.498679" ry="0.56015" fill="white"/>
<ellipse cx="1221" cy="450.811" rx="0.498666" ry="0.56015" fill="white"/>
<ellipse cx="1295.81" cy="450.811" rx="0.498693" ry="0.56015" fill="white"/>
<ellipse cx="1370.61" cy="450.811" rx="0.498693" ry="0.56015" fill="white"/>
<ellipse cx="1445.41" cy="450.811" rx="0.498666" ry="0.56015" fill="white"/>
<ellipse cx="787.151" cy="506.827" rx="0.498679" ry="0.56015" fill="white"/>
<ellipse cx="861.954" cy="506.827" rx="0.49869" ry="0.56015" fill="white"/>
<ellipse cx="936.756" cy="506.827" rx="0.498679" ry="0.56015" fill="white"/>
<ellipse cx="1011.56" cy="506.827" rx="0.498666" ry="0.56015" fill="white"/>
<ellipse cx="1086.36" cy="506.827" rx="0.498693" ry="0.56015" fill="white"/>
<ellipse cx="1161.16" cy="506.827" rx="0.498679" ry="0.56015" fill="white"/>
<ellipse cx="1235.96" cy="506.827" rx="0.498693" ry="0.56015" fill="white"/>
<ellipse cx="1310.77" cy="506.827" rx="0.498666" ry="0.56015" fill="white"/>
<ellipse cx="1385.57" cy="506.827" rx="0.498693" ry="0.56015" fill="white"/>
<ellipse cx="1460.37" cy="506.827" rx="0.498693" ry="0.56015" fill="white"/>
<ellipse cx="822.059" cy="568.445" rx="0.498676" ry="0.56015" fill="white"/>
<ellipse cx="896.861" cy="568.445" rx="0.498679" ry="0.56015" fill="white"/>
<ellipse cx="971.663" cy="568.445" rx="0.498673" ry="0.56015" fill="white"/>
<ellipse cx="1046.47" cy="568.445" rx="0.498679" ry="0.56015" fill="white"/>
<ellipse cx="1121.27" cy="568.445" rx="0.49872" ry="0.56015" fill="white"/>
<ellipse cx="1196.07" cy="568.445" rx="0.498625" ry="0.56015" fill="white"/>
<ellipse cx="1270.87" cy="568.445" rx="0.498693" ry="0.56015" fill="white"/>
<ellipse cx="1345.67" cy="568.445" rx="0.498666" ry="0.56015" fill="white"/>
<ellipse cx="1420.48" cy="568.445" rx="0.498666" ry="0.56015" fill="white"/>
<ellipse cx="1495.28" cy="568.445" rx="0.498693" ry="0.56015" fill="white"/>
<ellipse cx="792.138" cy="630.063" rx="0.498678" ry="0.560181" fill="white"/>
<ellipse cx="866.94" cy="630.063" rx="0.498679" ry="0.560181" fill="white"/>
<ellipse cx="941.742" cy="630.063" rx="0.4987" ry="0.560181" fill="white"/>
<ellipse cx="1016.54" cy="630.063" rx="0.498679" ry="0.560181" fill="white"/>
<ellipse cx="1091.35" cy="630.063" rx="0.498679" ry="0.560181" fill="white"/>
<ellipse cx="1166.15" cy="630.063" rx="0.49872" ry="0.560181" fill="white"/>
<ellipse cx="1240.95" cy="630.063" rx="0.498611" ry="0.560181" fill="white"/>
<ellipse cx="1315.75" cy="630.063" rx="0.498693" ry="0.560181" fill="white"/>
<ellipse cx="1390.55" cy="630.063" rx="0.498666" ry="0.560181" fill="white"/>
<ellipse cx="1465.36" cy="630.063" rx="0.498666" ry="0.560181" fill="white"/>
<ellipse cx="832.033" cy="690.561" rx="0.498676" ry="0.560181" fill="white"/>
<ellipse cx="906.835" cy="690.561" rx="0.498673" ry="0.560181" fill="white"/>
<ellipse cx="981.637" cy="690.561" rx="0.4987" ry="0.560181" fill="white"/>
<ellipse cx="1056.44" cy="690.561" rx="0.498666" ry="0.560181" fill="white"/>
<ellipse cx="1131.24" cy="690.561" rx="0.498666" ry="0.560181" fill="white"/>
<ellipse cx="1206.04" cy="690.561" rx="0.498679" ry="0.560181" fill="white"/>
<ellipse cx="1280.84" cy="690.561" rx="0.498693" ry="0.560181" fill="white"/>
<ellipse cx="1355.65" cy="690.561" rx="0.498666" ry="0.560181" fill="white"/>
<ellipse cx="1430.45" cy="690.561" rx="0.498693" ry="0.560181" fill="white"/>
<ellipse cx="802.112" cy="752.179" rx="0.498678" ry="0.560181" fill="white"/>
<ellipse cx="876.914" cy="752.179" rx="0.498679" ry="0.560181" fill="white"/>
<ellipse cx="951.716" cy="752.179" rx="0.498686" ry="0.560181" fill="white"/>
<ellipse cx="1026.52" cy="752.179" rx="0.498679" ry="0.560181" fill="white"/>
<ellipse cx="1101.32" cy="752.179" rx="0.498666" ry="0.560181" fill="white"/>
<ellipse cx="1176.12" cy="752.179" rx="0.498666" ry="0.560181" fill="white"/>
<ellipse cx="1250.92" cy="752.179" rx="0.498693" ry="0.560181" fill="white"/>
<ellipse cx="1325.73" cy="752.179" rx="0.498693" ry="0.560181" fill="white"/>
<ellipse cx="1400.53" cy="752.179" rx="0.498666" ry="0.560181" fill="white"/>
<ellipse cx="1475.33" cy="752.179" rx="0.498693" ry="0.560181" fill="white"/>
<ellipse cx="772.191" cy="813.797" rx="0.49868" ry="0.56015" fill="white"/>
<ellipse cx="846.993" cy="813.797" rx="0.498679" ry="0.56015" fill="white"/>
<ellipse cx="921.795" cy="813.797" rx="0.498679" ry="0.56015" fill="white"/>
<ellipse cx="996.597" cy="813.797" rx="0.498693" ry="0.56015" fill="white"/>
<ellipse cx="1071.4" cy="813.797" rx="0.498679" ry="0.56015" fill="white"/>
<ellipse cx="1146.2" cy="813.797" rx="0.498679" ry="0.56015" fill="white"/>
<ellipse cx="1221" cy="813.797" rx="0.498666" ry="0.56015" fill="white"/>
<ellipse cx="1295.81" cy="813.797" rx="0.498693" ry="0.56015" fill="white"/>
<ellipse cx="1370.61" cy="813.797" rx="0.498693" ry="0.56015" fill="white"/>
<ellipse cx="1445.41" cy="813.797" rx="0.498666" ry="0.56015" fill="white"/>
<ellipse cx="802.112" cy="875.415" rx="0.498678" ry="0.56015" fill="white"/>
<ellipse cx="876.914" cy="875.415" rx="0.498679" ry="0.56015" fill="white"/>
<ellipse cx="951.716" cy="875.415" rx="0.498686" ry="0.56015" fill="white"/>
<ellipse cx="1026.52" cy="875.415" rx="0.498679" ry="0.56015" fill="white"/>
<ellipse cx="1101.32" cy="875.415" rx="0.498666" ry="0.56015" fill="white"/>
<ellipse cx="1176.12" cy="875.415" rx="0.498666" ry="0.56015" fill="white"/>
<ellipse cx="1250.92" cy="875.415" rx="0.498693" ry="0.56015" fill="white"/>
<ellipse cx="1325.73" cy="875.415" rx="0.498693" ry="0.56015" fill="white"/>
<ellipse cx="1400.53" cy="875.415" rx="0.498666" ry="0.56015" fill="white"/>
<ellipse cx="782.165" cy="931.431" rx="0.498678" ry="0.56015" fill="white"/>
<ellipse cx="856.967" cy="931.431" rx="0.498666" ry="0.56015" fill="white"/>
<ellipse cx="931.769" cy="931.431" rx="0.498679" ry="0.56015" fill="white"/>
<ellipse cx="1006.57" cy="931.431" rx="0.498707" ry="0.56015" fill="white"/>
<ellipse cx="1081.37" cy="931.431" rx="0.498679" ry="0.56015" fill="white"/>
<ellipse cx="1156.17" cy="931.431" rx="0.498625" ry="0.56015" fill="white"/>
<ellipse cx="1230.98" cy="931.431" rx="0.49872" ry="0.56015" fill="white"/>
<ellipse cx="1305.78" cy="931.431" rx="0.498693" ry="0.56015" fill="white"/>
<ellipse cx="1380.58" cy="931.431" rx="0.498693" ry="0.56015" fill="white"/>
<ellipse cx="1380.58" cy="931.431" rx="0.498693" ry="0.56015" fill="white"/>
<ellipse cx="1475.33" cy="875.415" rx="0.498693" ry="0.56015" fill="white"/>
<ellipse cx="777.178" cy="7.16173" rx="0.498679" ry="0.560165" fill="white"/>
<ellipse cx="851.98" cy="7.16173" rx="0.498679" ry="0.560165" fill="white"/>
<ellipse cx="926.782" cy="7.16173" rx="0.498673" ry="0.560165" fill="white"/>
<ellipse cx="1001.58" cy="7.16173" rx="0.498652" ry="0.560165" fill="white"/>
<ellipse cx="1076.39" cy="7.16173" rx="0.498679" ry="0.560165" fill="white"/>
<ellipse cx="1151.19" cy="7.16173" rx="0.498625" ry="0.560165" fill="white"/>
<ellipse cx="1225.99" cy="7.16173" rx="0.498693" ry="0.560165" fill="white"/>
<ellipse cx="1300.79" cy="7.16173" rx="0.498666" ry="0.560165" fill="white"/>
<ellipse cx="1375.59" cy="7.16173" rx="0.498666" ry="0.560165" fill="white"/>
<ellipse cx="1450.4" cy="7.16173" rx="0.498693" ry="0.560165" fill="white"/>
<ellipse cx="812.086" cy="63.1781" rx="0.498683" ry="0.560165" fill="white"/>
<ellipse cx="886.887" cy="63.1781" rx="0.498679" ry="0.560165" fill="white"/>
<ellipse cx="961.69" cy="63.1781" rx="0.4987" ry="0.560165" fill="white"/>
<ellipse cx="1036.49" cy="63.1781" rx="0.498679" ry="0.560165" fill="white"/>
<ellipse cx="1111.29" cy="63.1781" rx="0.498666" ry="0.560165" fill="white"/>
<ellipse cx="1186.1" cy="63.1781" rx="0.49872" ry="0.560165" fill="white"/>
<ellipse cx="1260.9" cy="63.1781" rx="0.498693" ry="0.560165" fill="white"/>
<ellipse cx="1335.7" cy="63.1781" rx="0.498693" ry="0.560165" fill="white"/>
<ellipse cx="1410.5" cy="63.1781" rx="0.498666" ry="0.560165" fill="white"/>
<ellipse cx="1485.3" cy="63.1781" rx="0.498857" ry="0.560165" fill="white"/>
<ellipse cx="797.125" cy="119.194" rx="0.498679" ry="0.560165" fill="white"/>
<ellipse cx="871.927" cy="119.194" rx="0.498679" ry="0.560165" fill="white"/>
<ellipse cx="946.729" cy="119.194" rx="0.498659" ry="0.560165" fill="white"/>
<ellipse cx="1021.53" cy="119.194" rx="0.498666" ry="0.560165" fill="white"/>
<ellipse cx="1096.33" cy="119.194" rx="0.498679" ry="0.560165" fill="white"/>
<ellipse cx="1171.14" cy="119.194" rx="0.498679" ry="0.560165" fill="white"/>
<ellipse cx="1245.94" cy="119.194" rx="0.498638" ry="0.560165" fill="white"/>
<ellipse cx="1320.74" cy="119.194" rx="0.498666" ry="0.560165" fill="white"/>
<ellipse cx="1395.54" cy="119.194" rx="0.498693" ry="0.560165" fill="white"/>
<ellipse cx="1470.34" cy="119.194" rx="0.498693" ry="0.560165" fill="white"/>
<ellipse cx="812.086" cy="175.211" rx="0.498683" ry="0.560165" fill="white"/>
<ellipse cx="886.887" cy="175.211" rx="0.498679" ry="0.560165" fill="white"/>
<ellipse cx="961.69" cy="175.211" rx="0.4987" ry="0.560165" fill="white"/>
<ellipse cx="1036.49" cy="175.211" rx="0.498679" ry="0.560165" fill="white"/>
<ellipse cx="1111.29" cy="175.211" rx="0.498666" ry="0.560165" fill="white"/>
<ellipse cx="1186.1" cy="175.211" rx="0.49872" ry="0.560165" fill="white"/>
<ellipse cx="1260.9" cy="175.211" rx="0.498693" ry="0.560165" fill="white"/>
<ellipse cx="1335.7" cy="175.211" rx="0.498693" ry="0.560165" fill="white"/>
<ellipse cx="1410.5" cy="175.211" rx="0.498666" ry="0.560165" fill="white"/>
<ellipse cx="1485.3" cy="175.211" rx="0.498857" ry="0.560165" fill="white"/>
<ellipse cx="787.152" cy="232.347" rx="0.498679" ry="0.560165" fill="white"/>
<ellipse cx="861.954" cy="232.347" rx="0.49869" ry="0.560165" fill="white"/>
<ellipse cx="936.756" cy="232.347" rx="0.498679" ry="0.560165" fill="white"/>
<ellipse cx="1011.56" cy="232.347" rx="0.498666" ry="0.560165" fill="white"/>
<ellipse cx="1086.36" cy="232.347" rx="0.498693" ry="0.560165" fill="white"/>
<ellipse cx="1161.16" cy="232.347" rx="0.498679" ry="0.560165" fill="white"/>
<ellipse cx="1235.96" cy="232.347" rx="0.498693" ry="0.560165" fill="white"/>
<ellipse cx="1310.77" cy="232.347" rx="0.498666" ry="0.560165" fill="white"/>
<ellipse cx="1385.57" cy="232.347" rx="0.498693" ry="0.560165" fill="white"/>
<ellipse cx="1460.37" cy="232.347" rx="0.498693" ry="0.560165" fill="white"/>
<ellipse cx="817.072" cy="288.364" rx="0.498679" ry="0.560165" fill="white"/>
<ellipse cx="891.875" cy="288.364" rx="0.498679" ry="0.560165" fill="white"/>
<ellipse cx="966.676" cy="288.364" rx="0.498673" ry="0.560165" fill="white"/>
<ellipse cx="1041.48" cy="288.364" rx="0.498693" ry="0.560165" fill="white"/>
<ellipse cx="1116.28" cy="288.364" rx="0.498679" ry="0.560165" fill="white"/>
<ellipse cx="1191.08" cy="288.364" rx="0.498679" ry="0.560165" fill="white"/>
<ellipse cx="1265.88" cy="288.364" rx="0.498666" ry="0.560165" fill="white"/>
<ellipse cx="1340.69" cy="288.364" rx="0.498693" ry="0.560165" fill="white"/>
<ellipse cx="1415.49" cy="288.364" rx="0.498693" ry="0.560165" fill="white"/>
<ellipse cx="807.099" cy="344.38" rx="0.498673" ry="0.560165" fill="white"/>
<ellipse cx="881.901" cy="344.38" rx="0.498686" ry="0.560165" fill="white"/>
<ellipse cx="956.703" cy="344.38" rx="0.498652" ry="0.560165" fill="white"/>
<ellipse cx="1031.5" cy="344.38" rx="0.498679" ry="0.560165" fill="white"/>
<ellipse cx="1106.31" cy="344.38" rx="0.498679" ry="0.560165" fill="white"/>
<ellipse cx="1181.11" cy="344.38" rx="0.498679" ry="0.560165" fill="white"/>
<ellipse cx="1255.91" cy="344.38" rx="0.49872" ry="0.560165" fill="white"/>
<ellipse cx="1330.71" cy="344.38" rx="0.498666" ry="0.560165" fill="white"/>
<ellipse cx="1405.51" cy="344.38" rx="0.498693" ry="0.560165" fill="white"/>
<ellipse cx="1480.32" cy="344.38" rx="0.498583" ry="0.560165" fill="white"/>
<ellipse cx="837.02" cy="400.396" rx="0.498679" ry="0.56015" fill="white"/>
<ellipse cx="911.821" cy="400.396" rx="0.498673" ry="0.56015" fill="white"/>
<ellipse cx="986.623" cy="400.396" rx="0.4987" ry="0.56015" fill="white"/>
<ellipse cx="1061.43" cy="400.396" rx="0.498679" ry="0.56015" fill="white"/>
<ellipse cx="1136.23" cy="400.396" rx="0.498679" ry="0.56015" fill="white"/>
<ellipse cx="1211.03" cy="400.396" rx="0.49872" ry="0.56015" fill="white"/>
<ellipse cx="1285.83" cy="400.396" rx="0.498666" ry="0.56015" fill="white"/>
<ellipse cx="1360.63" cy="400.396" rx="0.498693" ry="0.56015" fill="white"/>
<ellipse cx="1435.44" cy="400.396" rx="0.498666" ry="0.56015" fill="white"/>
<ellipse cx="1510.24" cy="399.276" rx="0.498556" ry="0.56015" fill="white"/>
<ellipse cx="797.125" cy="456.413" rx="0.498679" ry="0.560181" fill="white"/>
<ellipse cx="871.927" cy="456.413" rx="0.498679" ry="0.560181" fill="white"/>
<ellipse cx="946.729" cy="456.413" rx="0.498659" ry="0.560181" fill="white"/>
<ellipse cx="1021.53" cy="456.413" rx="0.498666" ry="0.560181" fill="white"/>
<ellipse cx="1096.33" cy="456.413" rx="0.498679" ry="0.560181" fill="white"/>
<ellipse cx="1171.14" cy="456.413" rx="0.498679" ry="0.560181" fill="white"/>
<ellipse cx="1245.94" cy="456.413" rx="0.498638" ry="0.560181" fill="white"/>
<ellipse cx="1320.74" cy="456.413" rx="0.498666" ry="0.560181" fill="white"/>
<ellipse cx="1395.54" cy="456.413" rx="0.498693" ry="0.560181" fill="white"/>
<ellipse cx="1470.34" cy="456.413" rx="0.498693" ry="0.560181" fill="white"/>
<ellipse cx="812.086" cy="512.429" rx="0.498683" ry="0.560181" fill="white"/>
<ellipse cx="886.887" cy="512.429" rx="0.498679" ry="0.560181" fill="white"/>
<ellipse cx="961.69" cy="512.429" rx="0.4987" ry="0.560181" fill="white"/>
<ellipse cx="1036.49" cy="512.429" rx="0.498679" ry="0.560181" fill="white"/>
<ellipse cx="1111.29" cy="512.429" rx="0.498666" ry="0.560181" fill="white"/>
<ellipse cx="1186.1" cy="512.429" rx="0.49872" ry="0.560181" fill="white"/>
<ellipse cx="1260.9" cy="512.429" rx="0.498693" ry="0.560181" fill="white"/>
<ellipse cx="1335.7" cy="512.429" rx="0.498693" ry="0.560181" fill="white"/>
<ellipse cx="1410.5" cy="512.429" rx="0.498666" ry="0.560181" fill="white"/>
<ellipse cx="1485.3" cy="512.429" rx="0.498857" ry="0.560181" fill="white"/>
<ellipse cx="846.993" cy="574.047" rx="0.498679" ry="0.56015" fill="white"/>
<ellipse cx="921.795" cy="574.047" rx="0.498679" ry="0.56015" fill="white"/>
<ellipse cx="996.597" cy="574.047" rx="0.498693" ry="0.56015" fill="white"/>
<ellipse cx="1071.4" cy="574.047" rx="0.498679" ry="0.56015" fill="white"/>
<ellipse cx="1146.2" cy="574.047" rx="0.498679" ry="0.56015" fill="white"/>
<ellipse cx="1221" cy="574.047" rx="0.498666" ry="0.56015" fill="white"/>
<ellipse cx="1295.81" cy="574.047" rx="0.498693" ry="0.56015" fill="white"/>
<ellipse cx="1370.61" cy="574.047" rx="0.498693" ry="0.56015" fill="white"/>
<ellipse cx="1445.41" cy="574.047" rx="0.498666" ry="0.56015" fill="white"/>
<ellipse cx="1520.21" cy="572.927" rx="0.498693" ry="0.560181" fill="white"/>
<ellipse cx="817.072" cy="635.665" rx="0.498679" ry="0.56015" fill="white"/>
<ellipse cx="891.875" cy="635.665" rx="0.498679" ry="0.56015" fill="white"/>
<ellipse cx="966.676" cy="635.665" rx="0.498673" ry="0.56015" fill="white"/>
<ellipse cx="1041.48" cy="635.665" rx="0.498693" ry="0.56015" fill="white"/>
<ellipse cx="1116.28" cy="635.665" rx="0.498679" ry="0.56015" fill="white"/>
<ellipse cx="1191.08" cy="635.665" rx="0.498679" ry="0.56015" fill="white"/>
<ellipse cx="1265.88" cy="635.665" rx="0.498666" ry="0.56015" fill="white"/>
<ellipse cx="1340.69" cy="635.665" rx="0.498693" ry="0.56015" fill="white"/>
<ellipse cx="1415.49" cy="635.665" rx="0.498693" ry="0.56015" fill="white"/>
<ellipse cx="1490.29" cy="635.665" rx="0.498693" ry="0.56015" fill="white"/>
<ellipse cx="856.967" cy="696.163" rx="0.498666" ry="0.56015" fill="white"/>
<ellipse cx="931.769" cy="696.163" rx="0.498679" ry="0.56015" fill="white"/>
<ellipse cx="1006.57" cy="696.163" rx="0.498707" ry="0.56015" fill="white"/>
<ellipse cx="1081.37" cy="696.163" rx="0.498679" ry="0.56015" fill="white"/>
<ellipse cx="1156.17" cy="696.163" rx="0.498625" ry="0.56015" fill="white"/>
<ellipse cx="1230.98" cy="696.163" rx="0.49872" ry="0.56015" fill="white"/>
<ellipse cx="1305.78" cy="696.163" rx="0.498693" ry="0.56015" fill="white"/>
<ellipse cx="1380.58" cy="696.163" rx="0.498693" ry="0.56015" fill="white"/>
<ellipse cx="1455.38" cy="696.163" rx="0.498666" ry="0.56015" fill="white"/>
<ellipse cx="827.046" cy="757.781" rx="0.498679" ry="0.560181" fill="white"/>
<ellipse cx="901.848" cy="757.781" rx="0.498679" ry="0.560181" fill="white"/>
<ellipse cx="976.65" cy="757.781" rx="0.498673" ry="0.560181" fill="white"/>
<ellipse cx="1051.45" cy="757.781" rx="0.498679" ry="0.560181" fill="white"/>
<ellipse cx="1126.25" cy="757.781" rx="0.498679" ry="0.560181" fill="white"/>
<ellipse cx="1201.06" cy="757.781" rx="0.498625" ry="0.560181" fill="white"/>
<ellipse cx="1275.86" cy="757.781" rx="0.498666" ry="0.560181" fill="white"/>
<ellipse cx="1350.66" cy="757.781" rx="0.498693" ry="0.560181" fill="white"/>
<ellipse cx="1425.46" cy="757.781" rx="0.498693" ry="0.560181" fill="white"/>
<ellipse cx="1500.26" cy="757.781" rx="0.498693" ry="0.560181" fill="white"/>
<ellipse cx="797.125" cy="819.399" rx="0.498679" ry="0.560181" fill="white"/>
<ellipse cx="871.927" cy="819.399" rx="0.498679" ry="0.560181" fill="white"/>
<ellipse cx="946.729" cy="819.399" rx="0.498659" ry="0.560181" fill="white"/>
<ellipse cx="1021.53" cy="819.399" rx="0.498666" ry="0.560181" fill="white"/>
<ellipse cx="1096.33" cy="819.399" rx="0.498679" ry="0.560181" fill="white"/>
<ellipse cx="1171.14" cy="819.399" rx="0.498679" ry="0.560181" fill="white"/>
<ellipse cx="1245.94" cy="819.399" rx="0.498638" ry="0.560181" fill="white"/>
<ellipse cx="1320.74" cy="819.399" rx="0.498666" ry="0.560181" fill="white"/>
<ellipse cx="1395.54" cy="819.399" rx="0.498693" ry="0.560181" fill="white"/>
<ellipse cx="1470.34" cy="819.399" rx="0.498693" ry="0.560181" fill="white"/>
<ellipse cx="827.046" cy="881.017" rx="0.498679" ry="0.56015" fill="white"/>
<ellipse cx="901.848" cy="881.017" rx="0.498679" ry="0.56015" fill="white"/>
<ellipse cx="976.65" cy="881.017" rx="0.498673" ry="0.56015" fill="white"/>
<ellipse cx="1051.45" cy="881.017" rx="0.498679" ry="0.56015" fill="white"/>
<ellipse cx="1126.25" cy="881.017" rx="0.498679" ry="0.56015" fill="white"/>
<ellipse cx="1201.06" cy="881.017" rx="0.498625" ry="0.56015" fill="white"/>
<ellipse cx="1275.86" cy="881.017" rx="0.498666" ry="0.56015" fill="white"/>
<ellipse cx="1350.66" cy="881.017" rx="0.498693" ry="0.56015" fill="white"/>
<ellipse cx="1425.46" cy="881.017" rx="0.498693" ry="0.56015" fill="white"/>
<ellipse cx="807.099" cy="937.033" rx="0.498673" ry="0.56015" fill="white"/>
<ellipse cx="881.901" cy="937.033" rx="0.498686" ry="0.56015" fill="white"/>
<ellipse cx="956.703" cy="937.033" rx="0.498652" ry="0.56015" fill="white"/>
<ellipse cx="1031.5" cy="937.033" rx="0.498679" ry="0.56015" fill="white"/>
<ellipse cx="1106.31" cy="937.033" rx="0.498679" ry="0.56015" fill="white"/>
<ellipse cx="1181.11" cy="937.033" rx="0.498679" ry="0.56015" fill="white"/>
<ellipse cx="1255.91" cy="937.033" rx="0.49872" ry="0.56015" fill="white"/>
<ellipse cx="1330.71" cy="937.033" rx="0.498666" ry="0.56015" fill="white"/>
<ellipse cx="1405.51" cy="937.033" rx="0.498693" ry="0.56015" fill="white"/>
<ellipse cx="1405.51" cy="937.033" rx="0.498693" ry="0.56015" fill="white"/>
<ellipse cx="1500.26" cy="881.017" rx="0.498693" ry="0.56015" fill="white"/>
<ellipse cx="724.318" cy="29.5684" rx="0.498678" ry="0.560165" fill="white"/>
<ellipse cx="799.12" cy="29.5684" rx="0.498678" ry="0.560165" fill="white"/>
<ellipse cx="873.922" cy="29.5684" rx="0.498693" ry="0.560165" fill="white"/>
<ellipse cx="948.724" cy="29.5684" rx="0.498659" ry="0.560165" fill="white"/>
<ellipse cx="1023.53" cy="29.5684" rx="0.498679" ry="0.560165" fill="white"/>
<ellipse cx="1098.33" cy="29.5684" rx="0.498679" ry="0.560165" fill="white"/>
<ellipse cx="1173.13" cy="29.5684" rx="0.49872" ry="0.560165" fill="white"/>
<ellipse cx="1247.93" cy="29.5684" rx="0.498693" ry="0.560165" fill="white"/>
<ellipse cx="1322.73" cy="29.5684" rx="0.498666" ry="0.560165" fill="white"/>
<ellipse cx="1397.54" cy="29.5684" rx="0.498666" ry="0.560165" fill="white"/>
<ellipse cx="759.225" cy="85.5846" rx="0.498678" ry="0.560165" fill="white"/>
<ellipse cx="834.028" cy="85.5846" rx="0.498679" ry="0.560165" fill="white"/>
<ellipse cx="908.83" cy="85.5846" rx="0.498679" ry="0.560165" fill="white"/>
<ellipse cx="983.631" cy="85.5846" rx="0.498659" ry="0.560165" fill="white"/>
<ellipse cx="1058.43" cy="85.5846" rx="0.498666" ry="0.560165" fill="white"/>
<ellipse cx="1133.24" cy="85.5846" rx="0.498693" ry="0.560165" fill="white"/>
<ellipse cx="1208.04" cy="85.5846" rx="0.49872" ry="0.560165" fill="white"/>
<ellipse cx="1282.84" cy="85.5846" rx="0.498666" ry="0.560165" fill="white"/>
<ellipse cx="1357.64" cy="85.5846" rx="0.498693" ry="0.560165" fill="white"/>
<ellipse cx="1432.44" cy="85.5846" rx="0.498666" ry="0.560165" fill="white"/>
<ellipse cx="744.265" cy="141.601" rx="0.498678" ry="0.560165" fill="white"/>
<ellipse cx="819.067" cy="141.601" rx="0.498679" ry="0.560165" fill="white"/>
<ellipse cx="893.869" cy="141.601" rx="0.498679" ry="0.560165" fill="white"/>
<ellipse cx="968.671" cy="141.601" rx="0.498673" ry="0.560165" fill="white"/>
<ellipse cx="1043.47" cy="141.601" rx="0.498679" ry="0.560165" fill="white"/>
<ellipse cx="1118.28" cy="141.601" rx="0.49872" ry="0.560165" fill="white"/>
<ellipse cx="1193.08" cy="141.601" rx="0.498679" ry="0.560165" fill="white"/>
<ellipse cx="1267.88" cy="141.601" rx="0.498693" ry="0.560165" fill="white"/>
<ellipse cx="1342.68" cy="141.601" rx="0.498666" ry="0.560165" fill="white"/>
<ellipse cx="1417.48" cy="141.601" rx="0.498666" ry="0.560165" fill="white"/>
<ellipse cx="759.225" cy="197.617" rx="0.498678" ry="0.560165" fill="white"/>
<ellipse cx="834.028" cy="197.617" rx="0.498679" ry="0.560165" fill="white"/>
<ellipse cx="908.83" cy="197.617" rx="0.498679" ry="0.560165" fill="white"/>
<ellipse cx="983.631" cy="197.617" rx="0.498659" ry="0.560165" fill="white"/>
<ellipse cx="1058.43" cy="197.617" rx="0.498666" ry="0.560165" fill="white"/>
<ellipse cx="1133.24" cy="197.617" rx="0.498693" ry="0.560165" fill="white"/>
<ellipse cx="1208.04" cy="197.617" rx="0.49872" ry="0.560165" fill="white"/>
<ellipse cx="1282.84" cy="197.617" rx="0.498666" ry="0.560165" fill="white"/>
<ellipse cx="1357.64" cy="197.617" rx="0.498693" ry="0.560165" fill="white"/>
<ellipse cx="1432.44" cy="197.617" rx="0.498666" ry="0.560165" fill="white"/>
<ellipse cx="734.291" cy="254.754" rx="0.498678" ry="0.560165" fill="white"/>
<ellipse cx="809.093" cy="254.754" rx="0.498671" ry="0.560165" fill="white"/>
<ellipse cx="883.895" cy="254.754" rx="0.498679" ry="0.560165" fill="white"/>
<ellipse cx="958.698" cy="254.754" rx="0.498679" ry="0.560165" fill="white"/>
<ellipse cx="1033.5" cy="254.754" rx="0.498679" ry="0.560165" fill="white"/>
<ellipse cx="1108.3" cy="254.754" rx="0.498679" ry="0.560165" fill="white"/>
<ellipse cx="1183.1" cy="254.754" rx="0.498625" ry="0.560165" fill="white"/>
<ellipse cx="1257.91" cy="254.754" rx="0.498666" ry="0.560165" fill="white"/>
<ellipse cx="1332.71" cy="254.754" rx="0.498666" ry="0.560165" fill="white"/>
<ellipse cx="1407.51" cy="254.754" rx="0.498693" ry="0.560165" fill="white"/>
<ellipse cx="764.212" cy="310.77" rx="0.498678" ry="0.560165" fill="white"/>
<ellipse cx="839.014" cy="310.77" rx="0.498679" ry="0.560165" fill="white"/>
<ellipse cx="913.816" cy="310.77" rx="0.498679" ry="0.560165" fill="white"/>
<ellipse cx="988.618" cy="310.77" rx="0.498679" ry="0.560165" fill="white"/>
<ellipse cx="1063.42" cy="310.77" rx="0.498679" ry="0.560165" fill="white"/>
<ellipse cx="1138.22" cy="310.77" rx="0.498625" ry="0.560165" fill="white"/>
<ellipse cx="1213.02" cy="310.77" rx="0.498679" ry="0.560165" fill="white"/>
<ellipse cx="1287.83" cy="310.77" rx="0.498666" ry="0.560165" fill="white"/>
<ellipse cx="1362.63" cy="310.77" rx="0.498693" ry="0.560165" fill="white"/>
<ellipse cx="754.239" cy="366.786" rx="0.498678" ry="0.56015" fill="white"/>
<ellipse cx="829.041" cy="366.786" rx="0.498679" ry="0.56015" fill="white"/>
<ellipse cx="903.843" cy="366.786" rx="0.498679" ry="0.56015" fill="white"/>
<ellipse cx="978.645" cy="366.786" rx="0.498659" ry="0.56015" fill="white"/>
<ellipse cx="1053.45" cy="366.786" rx="0.498679" ry="0.56015" fill="white"/>
<ellipse cx="1128.25" cy="366.786" rx="0.49872" ry="0.56015" fill="white"/>
<ellipse cx="1203.05" cy="366.786" rx="0.498679" ry="0.56015" fill="white"/>
<ellipse cx="1277.85" cy="366.786" rx="0.498666" ry="0.56015" fill="white"/>
<ellipse cx="1352.65" cy="366.786" rx="0.498666" ry="0.56015" fill="white"/>
<ellipse cx="1427.46" cy="366.786" rx="0.498693" ry="0.56015" fill="white"/>
<ellipse cx="784.16" cy="422.803" rx="0.498679" ry="0.560181" fill="white"/>
<ellipse cx="858.962" cy="422.803" rx="0.498679" ry="0.560181" fill="white"/>
<ellipse cx="933.764" cy="422.803" rx="0.498679" ry="0.560181" fill="white"/>
<ellipse cx="1008.57" cy="422.803" rx="0.498679" ry="0.560181" fill="white"/>
<ellipse cx="1083.37" cy="422.803" rx="0.498679" ry="0.560181" fill="white"/>
<ellipse cx="1158.17" cy="422.803" rx="0.498679" ry="0.560181" fill="white"/>
<ellipse cx="1232.97" cy="422.803" rx="0.498611" ry="0.560181" fill="white"/>
<ellipse cx="1307.77" cy="422.803" rx="0.498666" ry="0.560181" fill="white"/>
<ellipse cx="1382.58" cy="422.803" rx="0.498693" ry="0.560181" fill="white"/>
<ellipse cx="1457.38" cy="422.803" rx="0.498666" ry="0.560181" fill="white"/>
<ellipse cx="744.265" cy="478.819" rx="0.498678" ry="0.56015" fill="white"/>
<ellipse cx="819.067" cy="478.819" rx="0.498679" ry="0.56015" fill="white"/>
<ellipse cx="893.869" cy="478.819" rx="0.498679" ry="0.56015" fill="white"/>
<ellipse cx="968.671" cy="478.819" rx="0.498673" ry="0.56015" fill="white"/>
<ellipse cx="1043.47" cy="478.819" rx="0.498679" ry="0.56015" fill="white"/>
<ellipse cx="1118.28" cy="478.819" rx="0.49872" ry="0.56015" fill="white"/>
<ellipse cx="1193.08" cy="478.819" rx="0.498679" ry="0.56015" fill="white"/>
<ellipse cx="1267.88" cy="478.819" rx="0.498693" ry="0.56015" fill="white"/>
<ellipse cx="1342.68" cy="478.819" rx="0.498666" ry="0.56015" fill="white"/>
<ellipse cx="1417.48" cy="478.819" rx="0.498666" ry="0.56015" fill="white"/>
<ellipse cx="759.225" cy="534.836" rx="0.498678" ry="0.560181" fill="white"/>
<ellipse cx="834.028" cy="534.836" rx="0.498679" ry="0.560181" fill="white"/>
<ellipse cx="908.83" cy="534.836" rx="0.498679" ry="0.560181" fill="white"/>
<ellipse cx="983.631" cy="534.836" rx="0.498659" ry="0.560181" fill="white"/>
<ellipse cx="1058.43" cy="534.836" rx="0.498666" ry="0.560181" fill="white"/>
<ellipse cx="1133.24" cy="534.836" rx="0.498693" ry="0.560181" fill="white"/>
<ellipse cx="1208.04" cy="534.836" rx="0.49872" ry="0.560181" fill="white"/>
<ellipse cx="1282.84" cy="534.836" rx="0.498666" ry="0.560181" fill="white"/>
<ellipse cx="1357.64" cy="534.836" rx="0.498693" ry="0.560181" fill="white"/>
<ellipse cx="1432.44" cy="534.836" rx="0.498666" ry="0.560181" fill="white"/>
<ellipse cx="794.133" cy="596.453" rx="0.498678" ry="0.56015" fill="white"/>
<ellipse cx="868.935" cy="596.453" rx="0.498666" ry="0.56015" fill="white"/>
<ellipse cx="943.737" cy="596.453" rx="0.498686" ry="0.56015" fill="white"/>
<ellipse cx="1018.54" cy="596.453" rx="0.498679" ry="0.56015" fill="white"/>
<ellipse cx="1093.34" cy="596.453" rx="0.498666" ry="0.56015" fill="white"/>
<ellipse cx="1168.14" cy="596.453" rx="0.498679" ry="0.56015" fill="white"/>
<ellipse cx="1242.95" cy="596.453" rx="0.49872" ry="0.56015" fill="white"/>
<ellipse cx="1317.75" cy="596.453" rx="0.498693" ry="0.56015" fill="white"/>
<ellipse cx="1392.55" cy="596.453" rx="0.498666" ry="0.56015" fill="white"/>
<ellipse cx="1467.35" cy="596.453" rx="0.498666" ry="0.56015" fill="white"/>
<ellipse cx="764.212" cy="658.071" rx="0.498678" ry="0.560181" fill="white"/>
<ellipse cx="839.014" cy="658.071" rx="0.498679" ry="0.560181" fill="white"/>
<ellipse cx="913.816" cy="658.071" rx="0.498679" ry="0.560181" fill="white"/>
<ellipse cx="988.618" cy="658.071" rx="0.498679" ry="0.560181" fill="white"/>
<ellipse cx="1063.42" cy="658.071" rx="0.498679" ry="0.560181" fill="white"/>
<ellipse cx="1138.22" cy="658.071" rx="0.498625" ry="0.560181" fill="white"/>
<ellipse cx="1213.02" cy="658.071" rx="0.498679" ry="0.560181" fill="white"/>
<ellipse cx="1287.83" cy="658.071" rx="0.498666" ry="0.560181" fill="white"/>
<ellipse cx="1362.63" cy="658.071" rx="0.498693" ry="0.560181" fill="white"/>
<ellipse cx="1437.43" cy="658.071" rx="0.498666" ry="0.560181" fill="white"/>
<ellipse cx="804.107" cy="718.569" rx="0.498683" ry="0.560119" fill="white"/>
<ellipse cx="878.909" cy="718.569" rx="0.498666" ry="0.560119" fill="white"/>
<ellipse cx="953.711" cy="718.569" rx="0.498707" ry="0.560119" fill="white"/>
<ellipse cx="1028.51" cy="718.569" rx="0.498679" ry="0.560119" fill="white"/>
<ellipse cx="1103.31" cy="718.569" rx="0.498666" ry="0.560119" fill="white"/>
<ellipse cx="1178.12" cy="718.569" rx="0.498693" ry="0.560119" fill="white"/>
<ellipse cx="1252.92" cy="718.569" rx="0.49872" ry="0.560119" fill="white"/>
<ellipse cx="1327.72" cy="718.569" rx="0.498666" ry="0.560119" fill="white"/>
<ellipse cx="1402.52" cy="718.569" rx="0.498693" ry="0.560119" fill="white"/>
<ellipse cx="774.186" cy="780.187" rx="0.498678" ry="0.560181" fill="white"/>
<ellipse cx="848.988" cy="780.187" rx="0.498666" ry="0.560181" fill="white"/>
<ellipse cx="923.79" cy="780.187" rx="0.498679" ry="0.560181" fill="white"/>
<ellipse cx="998.592" cy="780.187" rx="0.498707" ry="0.560181" fill="white"/>
<ellipse cx="1073.39" cy="780.187" rx="0.498679" ry="0.560181" fill="white"/>
<ellipse cx="1148.2" cy="780.187" rx="0.498679" ry="0.560181" fill="white"/>
<ellipse cx="1223" cy="780.187" rx="0.498693" ry="0.560181" fill="white"/>
<ellipse cx="1297.8" cy="780.187" rx="0.498666" ry="0.560181" fill="white"/>
<ellipse cx="1372.6" cy="780.187" rx="0.498666" ry="0.560181" fill="white"/>
<ellipse cx="1447.4" cy="780.187" rx="0.498693" ry="0.560181" fill="white"/>
<ellipse cx="744.265" cy="841.805" rx="0.498678" ry="0.56015" fill="white"/>
<ellipse cx="819.067" cy="841.805" rx="0.498679" ry="0.56015" fill="white"/>
<ellipse cx="893.869" cy="841.805" rx="0.498679" ry="0.56015" fill="white"/>
<ellipse cx="968.671" cy="841.805" rx="0.498673" ry="0.56015" fill="white"/>
<ellipse cx="1043.47" cy="841.805" rx="0.498679" ry="0.56015" fill="white"/>
<ellipse cx="1118.28" cy="841.805" rx="0.49872" ry="0.56015" fill="white"/>
<ellipse cx="1193.08" cy="841.805" rx="0.498679" ry="0.56015" fill="white"/>
<ellipse cx="1267.88" cy="841.805" rx="0.498693" ry="0.56015" fill="white"/>
<ellipse cx="1342.68" cy="841.805" rx="0.498666" ry="0.56015" fill="white"/>
<ellipse cx="1417.48" cy="841.805" rx="0.498666" ry="0.56015" fill="white"/>
<ellipse cx="774.186" cy="903.423" rx="0.498678" ry="0.560088" fill="white"/>
<ellipse cx="848.988" cy="903.423" rx="0.498666" ry="0.560088" fill="white"/>
<ellipse cx="923.79" cy="903.423" rx="0.498679" ry="0.560088" fill="white"/>
<ellipse cx="998.592" cy="903.423" rx="0.498707" ry="0.560088" fill="white"/>
<ellipse cx="1073.39" cy="903.423" rx="0.498679" ry="0.560088" fill="white"/>
<ellipse cx="1148.2" cy="903.423" rx="0.498679" ry="0.560088" fill="white"/>
<ellipse cx="1223" cy="903.423" rx="0.498693" ry="0.560088" fill="white"/>
<ellipse cx="1297.8" cy="903.423" rx="0.498666" ry="0.560088" fill="white"/>
<ellipse cx="1372.6" cy="903.423" rx="0.498666" ry="0.560088" fill="white"/>
<ellipse cx="754.239" cy="959.44" rx="0.498678" ry="0.56015" fill="white"/>
<ellipse cx="829.041" cy="959.44" rx="0.498679" ry="0.56015" fill="white"/>
<ellipse cx="903.843" cy="959.44" rx="0.498679" ry="0.56015" fill="white"/>
<ellipse cx="978.645" cy="959.44" rx="0.498659" ry="0.56015" fill="white"/>
<ellipse cx="1053.45" cy="959.44" rx="0.498679" ry="0.56015" fill="white"/>
<ellipse cx="1128.25" cy="959.44" rx="0.49872" ry="0.56015" fill="white"/>
<ellipse cx="1203.05" cy="959.44" rx="0.498679" ry="0.56015" fill="white"/>
<ellipse cx="1277.85" cy="959.44" rx="0.498666" ry="0.56015" fill="white"/>
<ellipse cx="1352.65" cy="959.44" rx="0.498666" ry="0.56015" fill="white"/>
<ellipse cx="1352.65" cy="959.44" rx="0.498666" ry="0.56015" fill="white"/>
<ellipse cx="1447.4" cy="903.423" rx="0.498693" ry="0.560088" fill="white"/>
<ellipse cx="761.22" cy="80.5433" rx="0.99736" ry="1.12033" fill="white"/>
<ellipse cx="910.824" cy="86.1448" rx="0.997363" ry="1.12032" fill="white"/>
<ellipse cx="1060.43" cy="80.5433" rx="0.997363" ry="1.12033" fill="white"/>
<ellipse cx="1210.03" cy="74.9416" rx="0.997322" ry="1.12032" fill="white"/>
<ellipse cx="1359.64" cy="80.5433" rx="0.997363" ry="1.12033" fill="white"/>
<ellipse cx="1509.24" cy="86.1448" rx="0.997254" ry="1.12032" fill="white"/>
<ellipse cx="821.062" cy="192.576" rx="0.997353" ry="1.12033" fill="white"/>
<ellipse cx="970.666" cy="198.178" rx="0.997336" ry="1.12033" fill="white"/>
<ellipse cx="1120.27" cy="192.576" rx="0.997322" ry="1.12033" fill="white"/>
<ellipse cx="1269.87" cy="186.974" rx="0.997363" ry="1.12033" fill="white"/>
<ellipse cx="1419.48" cy="192.576" rx="0.997336" ry="1.12033" fill="white"/>
<ellipse cx="1569.08" cy="198.178" rx="0.997363" ry="1.12033" fill="white"/>
<ellipse cx="796.128" cy="305.729" rx="0.997362" ry="1.12033" fill="white"/>
<ellipse cx="945.732" cy="311.33" rx="0.997363" ry="1.12033" fill="white"/>
<ellipse cx="1095.34" cy="305.729" rx="0.997363" ry="1.12033" fill="white"/>
<ellipse cx="1244.94" cy="300.127" rx="0.997391" ry="1.12031" fill="white"/>
<ellipse cx="1394.54" cy="305.729" rx="0.997336" ry="1.12033" fill="white"/>
<ellipse cx="1544.15" cy="310.21" rx="0.997363" ry="1.12033" fill="white"/>
<ellipse cx="771.194" cy="417.762" rx="0.997362" ry="1.12033" fill="white"/>
<ellipse cx="920.798" cy="423.363" rx="0.997356" ry="1.12033" fill="white"/>
<ellipse cx="1070.4" cy="417.762" rx="0.99735" ry="1.12033" fill="white"/>
<ellipse cx="1220.01" cy="412.16" rx="0.997418" ry="1.12033" fill="white"/>
<ellipse cx="1369.61" cy="417.762" rx="0.997363" ry="1.12033" fill="white"/>
<ellipse cx="1519.21" cy="422.243" rx="0.997254" ry="1.12033" fill="white"/>
<ellipse cx="850.983" cy="529.794" rx="0.99737" ry="1.12033" fill="white"/>
<ellipse cx="1000.59" cy="535.396" rx="0.997363" ry="1.12036" fill="white"/>
<ellipse cx="1150.19" cy="529.794" rx="0.99735" ry="1.12033" fill="white"/>
<ellipse cx="1299.79" cy="524.192" rx="0.997363" ry="1.12033" fill="white"/>
<ellipse cx="1449.4" cy="529.794" rx="0.997363" ry="1.12033" fill="white"/>
<ellipse cx="1599" cy="534.276" rx="0.997254" ry="1.12033" fill="white"/>
<ellipse cx="757.73" cy="641.827" rx="0.99736" ry="1.12033" fill="white"/>
<ellipse cx="907.333" cy="647.428" rx="0.997356" ry="1.12033" fill="white"/>
<ellipse cx="1056.94" cy="641.827" rx="0.997363" ry="1.12033" fill="white"/>
<ellipse cx="1206.54" cy="636.225" rx="0.997363" ry="1.12033" fill="white"/>
<ellipse cx="1356.15" cy="641.827" rx="0.997363" ry="1.12033" fill="white"/>
<ellipse cx="1505.75" cy="646.308" rx="0.997281" ry="1.12036" fill="white"/>
<ellipse cx="769.199" cy="738.175" rx="0.997358" ry="1.12033" fill="white"/>
<ellipse cx="918.803" cy="743.777" rx="0.997363" ry="1.12033" fill="white"/>
<ellipse cx="1068.41" cy="738.175" rx="0.997363" ry="1.12033" fill="white"/>
<ellipse cx="1218.01" cy="732.573" rx="0.997336" ry="1.12033" fill="white"/>
<ellipse cx="1367.62" cy="738.175" rx="0.997363" ry="1.12033" fill="white"/>
<ellipse cx="1517.22" cy="743.777" rx="0.997363" ry="1.12033" fill="white"/>
<ellipse cx="805.603" cy="858.05" rx="0.99736" ry="1.12033" fill="white"/>
<ellipse cx="955.207" cy="863.652" rx="0.997336" ry="1.1203" fill="white"/>
<ellipse cx="1104.81" cy="858.05" rx="0.997363" ry="1.12033" fill="white"/>
<ellipse cx="1254.42" cy="852.449" rx="0.997308" ry="1.12033" fill="white"/>
<ellipse cx="1404.02" cy="858.05" rx="0.997336" ry="1.12033" fill="white"/>
<ellipse cx="1553.62" cy="863.652" rx="0.997391" ry="1.1203" fill="white"/>
<ellipse cx="1442.42" cy="957.759" rx="0.997363" ry="1.12036" fill="white"/>
<ellipse cx="870.93" cy="35.7301" rx="0.99735" ry="1.12032" fill="white"/>
<ellipse cx="1020.53" cy="30.1286" rx="0.99735" ry="1.12032" fill="white"/>
<ellipse cx="1170.14" cy="24.5269" rx="0.99735" ry="1.12033" fill="white"/>
<ellipse cx="1319.74" cy="30.1286" rx="0.997363" ry="1.12032" fill="white"/>
<ellipse cx="1469.35" cy="35.7301" rx="0.997391" ry="1.12032" fill="white"/>
<ellipse cx="841.009" cy="147.763" rx="0.99736" ry="1.12035" fill="white"/>
<ellipse cx="990.613" cy="142.161" rx="0.997363" ry="1.12033" fill="white"/>
<ellipse cx="1140.22" cy="136.56" rx="0.997404" ry="1.12033" fill="white"/>
<ellipse cx="1289.82" cy="142.161" rx="0.997391" ry="1.12033" fill="white"/>
<ellipse cx="1439.43" cy="147.763" rx="0.997336" ry="1.12035" fill="white"/>
<ellipse cx="751.246" cy="255.314" rx="0.997361" ry="1.12033" fill="white"/>
<ellipse cx="900.851" cy="260.916" rx="0.997356" ry="1.12031" fill="white"/>
<ellipse cx="1050.45" cy="255.314" rx="0.997363" ry="1.12033" fill="white"/>
<ellipse cx="1200.06" cy="249.712" rx="0.997377" ry="1.12033" fill="white"/>
<ellipse cx="1349.66" cy="255.314" rx="0.997336" ry="1.12033" fill="white"/>
<ellipse cx="1499.27" cy="259.796" rx="0.997363" ry="1.12033" fill="white"/>
<ellipse cx="875.917" cy="372.948" rx="0.997356" ry="1.12033" fill="white"/>
<ellipse cx="1025.52" cy="367.347" rx="0.99735" ry="1.1203" fill="white"/>
<ellipse cx="1175.12" cy="361.745" rx="0.997404" ry="1.12033" fill="white"/>
<ellipse cx="1324.73" cy="367.347" rx="0.997363" ry="1.1203" fill="white"/>
<ellipse cx="1474.33" cy="372.948" rx="0.997363" ry="1.12033" fill="white"/>
<ellipse cx="850.982" cy="484.981" rx="0.99737" ry="1.12033" fill="white"/>
<ellipse cx="1000.59" cy="479.379" rx="0.997363" ry="1.12033" fill="white"/>
<ellipse cx="1150.19" cy="473.778" rx="0.99735" ry="1.12033" fill="white"/>
<ellipse cx="1299.79" cy="479.379" rx="0.997363" ry="1.12033" fill="white"/>
<ellipse cx="1449.4" cy="484.981" rx="0.997363" ry="1.12033" fill="white"/>
<ellipse cx="781.167" cy="591.412" rx="0.99736" ry="1.1203" fill="white"/>
<ellipse cx="930.771" cy="597.014" rx="0.997363" ry="1.12033" fill="white"/>
<ellipse cx="1080.38" cy="591.412" rx="0.997363" ry="1.1203" fill="white"/>
<ellipse cx="1229.98" cy="585.81" rx="0.997418" ry="1.12033" fill="white"/>
<ellipse cx="1379.58" cy="591.412" rx="0.997391" ry="1.1203" fill="white"/>
<ellipse cx="1529.19" cy="595.893" rx="0.997363" ry="1.12033" fill="white"/>
<ellipse cx="837.518" cy="707.926" rx="0.99736" ry="1.12033" fill="white"/>
<ellipse cx="987.122" cy="702.325" rx="0.997377" ry="1.12033" fill="white"/>
<ellipse cx="1136.73" cy="696.723" rx="0.997404" ry="1.12033" fill="white"/>
<ellipse cx="1286.33" cy="702.325" rx="0.997363" ry="1.12033" fill="white"/>
<ellipse cx="1435.93" cy="707.926" rx="0.997363" ry="1.12033" fill="white"/>
<ellipse cx="848.988" cy="805.395" rx="0.99735" ry="1.12033" fill="white"/>
<ellipse cx="998.592" cy="799.793" rx="0.99735" ry="1.1203" fill="white"/>
<ellipse cx="1148.2" cy="794.191" rx="0.997404" ry="1.12036" fill="white"/>
<ellipse cx="1297.8" cy="799.793" rx="0.997363" ry="1.1203" fill="white"/>
<ellipse cx="1447.4" cy="805.395" rx="0.997363" ry="1.12033" fill="white"/>
<ellipse cx="735.787" cy="919.668" rx="0.997357" ry="1.1203" fill="white"/>
<ellipse cx="885.391" cy="925.27" rx="0.997356" ry="1.1203" fill="white"/>
<ellipse cx="1035" cy="919.668" rx="0.997363" ry="1.1203" fill="white"/>
<ellipse cx="1184.6" cy="914.067" rx="0.997322" ry="1.1203" fill="white"/>
<ellipse cx="1334.2" cy="919.668" rx="0.997363" ry="1.1203" fill="white"/>
<ellipse cx="1483.81" cy="925.27" rx="0.997281" ry="1.1203" fill="white"/>
</svg>
