<svg xmlns="http://www.w3.org/2000/svg" xmlns:xlink="http://www.w3.org/1999/xlink" viewBox="0,0,256,256" width="208px" height="208px" fill-rule="nonzero"><g fill="#fefdfd" fill-rule="nonzero" stroke="none" stroke-width="1" stroke-linecap="butt" stroke-linejoin="miter" stroke-miterlimit="10" stroke-dasharray="" stroke-dashoffset="0" font-family="none" font-weight="none" font-size="none" text-anchor="none" style="mix-blend-mode: normal"><g transform="scale(9.84615,9.84615)"><path d="M19.625,0.15625c-1.62891,0.07813 -3.19531,0.78906 -4.40625,2l-4.75,4.75c0.74609,-0.75 3.51563,-0.23437 4.1875,0.4375l2.875,-2.875c0.63672,-0.63672 1.43359,-1.02734 2.25,-1.0625c0.55469,-0.02734 1.33984,0.08984 2.03125,0.78125c0.64453,0.64453 0.78125,1.39453 0.78125,1.90625c0,0.85547 -0.39062,1.70703 -1.0625,2.375l-5,5.03125c-1.25781,1.25781 -3.17187,1.35938 -4.28125,0.25c-0.63281,-0.63281 -1.67578,-0.63672 -2.3125,0c-0.63672,0.63672 -0.63672,1.67578 0,2.3125c1.14063,1.14063 2.64063,1.71875 4.1875,1.71875c1.67188,0 3.37891,-0.68359 4.6875,-2l5.03125,-5c1.27734,-1.27344 2,-2.97656 2,-4.6875c0,-1.58984 -0.60156,-3.10156 -1.71875,-4.21875c-1.19531,-1.19531 -2.80078,-1.79687 -4.5,-1.71875zM11.875,8.21875c-1.67187,0 -3.40625,0.6875 -4.71875,2l-5,5c-1.27734,1.27344 -2,2.97656 -2,4.6875c0,1.58984 0.60156,3.10156 1.71875,4.21875c1.19531,1.19531 2.80078,1.79688 4.5,1.71875c1.62891,-0.07812 3.19531,-0.78906 4.40625,-2l4.75,-4.75c-0.75,0.75 -3.51562,0.23438 -4.1875,-0.4375l-2.875,2.875c-0.63672,0.63672 -1.43359,1.02344 -2.25,1.0625c-0.55469,0.02734 -1.33984,-0.08984 -2.03125,-0.78125c-0.64453,-0.64453 -0.78125,-1.39844 -0.78125,-1.90625c0,-0.85547 0.39063,-1.70703 1.0625,-2.375l5,-5.03125c1.25781,-1.25781 3.17188,-1.35547 4.28125,-0.25c0.63672,0.63672 1.67969,0.63672 2.3125,0c0.63672,-0.63672 0.63672,-1.67578 0,-2.3125c-1.14062,-1.14062 -2.64453,-1.71875 -4.1875,-1.71875z"></path></g></g></svg>